<?xml version="1.0" encoding="UTF-8"?>
<!-- Generator: visioncortex VTracer 0.6.3 -->
<svg version="1.1" xmlns="http://www.w3.org/2000/svg" width="1280" height="960">
<path d="M0 0 C1.02 1.71 1.02 1.71 1.94 3.97 C2.47 5.24 2.47 5.24 3.01 6.54 C3.38 7.47 3.75 8.39 4.13 9.35 C4.53 10.32 4.93 11.28 5.33 12.28 C6.61 15.39 7.87 18.51 9.12 21.62 C9.95 23.64 10.78 25.66 11.6 27.68 C17.21 41.4 22.64 55.18 28 69 C26.57 69.98 25.13 70.96 23.69 71.94 C22.49 72.76 22.49 72.76 21.26 73.59 C19 75 19 75 16 76 C14.95 73.53 13.9 71.05 12.85 68.58 C11.89 66.33 10.94 64.08 9.98 61.83 C7.29 55.5 4.65 49.17 2.1 42.78 C0.78 39.48 -0.55 36.18 -1.89 32.89 C-2.55 31.25 -3.2 29.62 -3.84 27.98 C-4.75 25.67 -5.68 23.36 -6.62 21.06 C-6.88 20.36 -7.15 19.66 -7.43 18.94 C-8.28 16.77 -8.28 16.77 -10 14 C-13.09 12.8 -14.45 12.84 -17.62 13.75 C-20.55 15.29 -22.52 16.51 -23.56 19.74 C-26.91 36.9 -19.41 54.38 -11 69 C-6.22 75.88 -1.61 79.89 6.62 81.88 C15.03 82.63 23.36 79.64 30.09 74.75 C34.8 70.44 37.58 65.27 38.2 58.92 C38.33 52.91 37.87 47.01 33.54 42.46 C32.08 41.24 30.54 40.11 29 39 C28.34 38.34 27.68 37.68 27 37 C30.69 35.04 33.85 34.61 38 35.26 C42.6 36.96 44.97 41.27 47.38 45.31 C49.5 54.43 47.51 61.28 42.71 69.09 C35.7 79.26 24.95 85.5 13.06 88.38 C1.83 90.23 -7.67 87.73 -17 81.5 C-31.24 70.13 -36.93 52.44 -39 35 C-39.39 26.35 -38.83 17.8 -33 11 C-28.39 6.73 -24.59 6.6 -18.59 6.76 C-16.28 6.97 -14.22 7.36 -12 8 C-12.33 6.35 -12.66 4.7 -13 3 C-11.4 2.3 -9.8 1.62 -8.19 0.94 C-7.29 0.55 -6.4 0.17 -5.48 -0.22 C-3 -1 -3 -1 0 0 Z " fill="#090D0F" transform="translate(771,747)"/>
<path d="M0 0 C6.21 4.01 10.78 10.07 13.12 17.06 C13.96 21.6 14.13 25.46 11.63 29.45 C6.03 35.92 6.03 35.92 0.69 36.31 C-2.88 36.06 -2.88 36.06 -4.81 34.88 C-6.2 32.5 -6.09 30.77 -5.88 28.06 C-5.33 27.89 -4.79 27.72 -4.23 27.55 C-1.07 26.48 1.55 25.54 4.12 23.38 C5.61 19.94 5.8 16.7 5.12 13.06 C3.33 10.25 2.11 8.55 -0.88 7.06 C-5.58 6.49 -9 6.61 -13.25 8.81 C-18.02 12.9 -19.2 15.42 -19.81 21.58 C-19.91 25.58 -18.96 29.16 -17.94 33 C-15.64 42.52 -14.31 50.41 -18.41 59.67 C-22.6 66.51 -29.33 71.03 -36.75 73.75 C-44.6 74.9 -50.95 73.95 -57.39 69.21 C-65.16 62.63 -71.19 55.17 -72.19 44.81 C-71.7 39.01 -69.67 34.81 -65.5 30.75 C-59.6 26.96 -55.86 25.4 -48.88 26.06 C-45.29 27.7 -44.08 28.75 -41.88 32.06 C-41.55 37.41 -41.55 37.41 -42.88 40.06 C-43.9 39.54 -43.9 39.54 -44.94 39 C-48.72 37.79 -51.04 38.1 -54.88 39.06 C-57.87 40.47 -57.87 40.47 -59.88 43.06 C-61.48 49.18 -60.89 52.57 -57.88 58.06 C-55.99 61.05 -54.72 61.1 -51.19 62 C-46.28 62.42 -42.81 60.92 -38.88 58.06 C-34.08 53.57 -32.1 50.2 -31.62 43.62 C-31.65 39.83 -32.45 36.43 -33.38 32.75 C-35.38 24.47 -36.65 16.51 -32.21 8.84 C-29.84 5.68 -27.08 3.34 -23.88 1.06 C-23.01 0.44 -22.14 -0.18 -21.25 -0.81 C-14.34 -3.12 -6.62 -3.28 0 0 Z " fill="#090D0F" transform="translate(936.875,218.9375)"/>
<path d="M0 0 C3.17 2.88 5.67 5.59 6.41 9.94 C6.53 12.9 6.41 15.26 4.94 17.88 C2.27 19.3 0.03 19.07 -2.94 18.88 C-3.06 17.02 -3.06 17.02 -3.19 15.12 C-3.57 11.98 -3.84 11 -5.88 8.44 C-9.65 5.58 -12.2 5.4 -16.94 5.88 C-20.47 7.9 -22.3 9.1 -23.67 12.93 C-24.55 17.98 -23.8 21.8 -21.23 26.21 C-18.28 30 -14.72 30.72 -10.19 31.62 C-6.26 32 -2.55 31.59 1.36 31.15 C10.21 30.25 18.29 30.03 26.06 34.88 C33.56 41.13 37.36 48.94 38.5 58.56 C37.29 67.69 33.04 73.96 25.82 79.64 C18.09 85.01 11.47 86.76 2.06 85.88 C-3.89 83.89 -7.13 79.97 -10.25 74.62 C-11.58 69.29 -11.85 63.96 -9.62 58.88 C-7.94 56.88 -7.94 56.88 -4.94 54.88 C-0.86 54.54 0.59 54.56 4.06 56.88 C3.75 57.39 3.44 57.91 3.12 58.44 C1.15 62.97 0.57 66.49 2.25 71.19 C4.48 74.51 4.48 74.51 8.06 75.88 C14.47 76.51 17.83 75.65 23.06 71.88 C25.42 68.19 25.26 65.47 24.67 61.26 C23.43 56.39 20.7 52.57 17.25 49 C9.6 45.07 2.19 45.93 -6.07 46.69 C-13.38 47.21 -19.49 46.48 -25.46 41.96 C-31.32 35.15 -34.37 28.87 -33.94 19.75 C-33.01 13.58 -30.63 9.07 -25.78 5.12 C-17.87 -0.34 -9.5 -3.64 0 0 Z " fill="#090D0F" transform="translate(461.9375,139.125)"/>
<path d="M0 0 C1.79 0.14 3.57 0.29 5.36 0.43 C9.7 0.78 14.04 1.14 18.38 1.5 C18.4 3.48 18.42 5.46 18.44 7.44 C18.45 8.54 18.46 9.64 18.47 10.78 C18.38 13.5 18.38 13.5 17.38 14.5 C14.59 14.43 11.84 14.31 9.06 14.12 C8.24 14.08 7.42 14.03 6.57 13.98 C2.14 13.71 -2.27 13.36 -6.69 12.94 C-11.69 12.51 -16.67 12.33 -21.69 12.25 C-22.43 12.23 -23.17 12.21 -23.93 12.19 C-28.01 12.14 -28.01 12.14 -31.59 13.86 C-33.11 16.27 -33.1 17.71 -32.62 20.5 C-29.63 24.87 -25.56 25.54 -20.62 26.5 C-17.67 26.9 -14.72 27.14 -11.75 27.35 C-10.54 27.45 -10.54 27.45 -9.3 27.54 C-6.74 27.74 -4.18 27.93 -1.62 28.12 C0.12 28.26 1.87 28.4 3.61 28.53 C7.87 28.86 12.12 29.18 16.38 29.5 C16.4 31.48 16.42 33.46 16.44 35.44 C16.45 36.54 16.46 37.64 16.47 38.78 C16.38 41.5 16.38 41.5 15.38 42.5 C13.4 42.46 11.43 42.34 9.46 42.2 C8.23 42.11 7 42.02 5.73 41.93 C4.42 41.83 3.1 41.73 1.75 41.62 C0.41 41.53 -0.92 41.43 -2.26 41.34 C-7.74 40.95 -13.23 40.54 -18.71 40.07 C-20 39.96 -21.29 39.86 -22.62 39.75 C-23.7 39.65 -24.77 39.55 -25.88 39.45 C-29.15 39.51 -32.23 40.1 -34.62 42.5 C-35.14 46.26 -34.99 47.97 -32.81 51.12 C-22.68 58.67 -8.91 59.92 3.38 59.5 C3.64 58.55 3.91 57.6 4.19 56.62 C5.38 53.5 5.38 53.5 8.38 51.5 C11.94 51.62 11.94 51.62 15.38 52.5 C17.33 54.78 17.39 56.03 17.31 59 C15.86 62.88 13 64.69 9.38 66.5 C-7.33 68.06 -25.11 67.07 -38.73 56.24 C-43.23 52.11 -44.84 49.12 -45.12 43.06 C-44.91 37.75 -43.92 34.68 -40.62 30.5 C-37.88 29.06 -37.88 29.06 -35.62 28.5 C-35.62 27.84 -35.62 27.18 -35.62 26.5 C-36.22 26.27 -36.82 26.05 -37.44 25.81 C-40.43 24.02 -41.27 22.74 -42.62 19.5 C-43.32 14.55 -43.28 10.06 -40.94 5.56 C-31.96 -6.33 -12.9 -1.07 0 0 Z " fill="#090D0F" transform="translate(985.625,468.5)"/>
<path d="M0 0 C4.08 1.54 7.42 3.5 11 6 C9.75 9.75 8.22 10.65 5.12 13.06 C1.12 16.26 -2.73 19.52 -6.5 23 C-10.95 27.09 -15.55 30.92 -20.25 34.72 C-24.04 37.86 -27.63 41.2 -31.25 44.54 C-34.78 47.7 -38.46 50.65 -42.15 53.62 C-45.91 56.76 -49.49 60.08 -53.03 63.46 C-55.36 65.65 -56.91 66.97 -60 68 C-62.31 65.36 -64.62 62.72 -67 60 C-65 56 -65 56 -63 53 C-63.53 52.77 -64.06 52.54 -64.61 52.3 C-69.92 49.85 -73.52 47.7 -75.79 42.03 C-77.62 35.79 -76.75 30.83 -74 25 C-67.22 14 -57.21 6.07 -45 2 C-38.39 1.25 -33.15 1.48 -27.66 5.44 C-23.95 8.93 -22.11 13.06 -21 18 C-20.32 17.37 -19.64 16.74 -18.95 16.09 C-12.82 10.46 -6.58 5.11 0 0 Z M-60.23 26.99 C-63.49 30.69 -64.82 33.7 -65.5 38.56 C-65.25 42.13 -65.25 42.13 -62.88 44.94 C-59.44 47.4 -58.14 47.49 -54 47 C-51.29 45.42 -51.29 45.42 -48.81 43.12 C-47.87 42.31 -46.92 41.49 -45.95 40.65 C-44.98 39.78 -44 38.9 -43 38 C-42.51 37.56 -42.01 37.11 -41.51 36.66 C-39.16 34.54 -36.83 32.41 -34.51 30.26 C-32 28 -32 28 -29.18 25.93 C-28.46 25.29 -27.74 24.66 -27 24 C-27 20.53 -27.34 18.16 -29.06 15.12 C-40.43 8.53 -52.65 19.15 -60.23 26.99 Z " fill="#090D0F" transform="translate(440,660)"/>
<path d="M0 0 C2.44 0.22 2.44 0.22 4.88 0.44 C5.78 0.52 6.68 0.6 7.62 0.68 C10 1 10 1 12 2 C11.39 6.97 10.38 11.57 8.97 16.39 C8.77 17.07 8.58 17.74 8.37 18.44 C7.96 19.85 7.55 21.25 7.13 22.66 C6.5 24.82 5.87 26.98 5.24 29.15 C2.16 39.69 2.16 39.69 1 42 C1.66 41.63 2.32 41.26 3 40.88 C6.01 39.21 9.04 37.58 12.06 35.94 C13.1 35.36 14.14 34.78 15.21 34.18 C23.91 29.51 23.91 29.51 28.06 30.06 C30.78 30.93 33.41 31.82 36 33 C32.32 36.15 28.16 37.82 23.75 39.69 C23 40.01 22.26 40.33 21.49 40.66 C19.66 41.44 17.83 42.22 16 43 C16.95 43.62 17.91 44.23 18.89 44.87 C22.79 47.54 24.51 49.54 26 54 C26.64 60.76 24.92 66.3 22.88 72.73 C22.09 75.68 21.82 77.97 22 81 C24.25 81.87 24.25 81.87 27 82 C30.84 79.63 32.91 76.96 35 73 C36.65 73.33 38.3 73.66 40 74 C37.57 80.88 33.51 87.39 27 91 C21.98 92.05 18.18 91.56 13.56 89.38 C10.6 86.63 9.24 84.86 8 81 C7.86 76.05 9.08 71.55 10.56 66.88 C11.85 62.78 12.53 59.33 12 55 C11.02 52.94 11.02 52.94 9 52 C5.32 51.44 3.6 51.62 0.44 53.65 C-2.41 56.39 -3.15 58.3 -4.24 62.08 C-4.58 63.24 -4.93 64.4 -5.28 65.59 C-5.62 66.8 -5.96 68.01 -6.31 69.25 C-6.67 70.47 -7.03 71.69 -7.4 72.95 C-8.28 75.96 -9.14 78.98 -10 82 C-13.96 81.01 -17.92 80.02 -22 79 C-20.61 71.53 -18.78 64.29 -16.7 56.99 C-16.38 55.87 -16.06 54.74 -15.73 53.59 C-15.06 51.22 -14.39 48.85 -13.72 46.48 C-12.7 42.91 -11.68 39.33 -10.67 35.76 C-7.28 23.78 -3.82 11.85 0 0 Z " fill="#090D0F" transform="translate(727,100)"/>
<path d="M0 0 C8.11 2.24 8.11 2.24 11.06 4.75 C13.37 10.3 11.68 15.93 10 21.44 C9.63 22.67 9.26 23.91 8.88 25.18 C8.59 26.11 8.3 27.04 8 28 C8.63 28.05 9.26 28.1 9.91 28.15 C17.66 28.8 25.32 29.84 33 31 C33.05 30.11 33.1 29.22 33.15 28.3 C33.22 27.13 33.3 25.96 33.38 24.75 C33.44 23.59 33.51 22.43 33.59 21.23 C33.96 18.29 34.48 16.5 36 14 C37.98 14.33 39.96 14.66 42 15 C41.86 16.88 41.71 18.75 41.56 20.62 C41.48 21.67 41.4 22.71 41.32 23.79 C41.01 26.89 40.53 29.93 40 33 C41.12 33.06 41.12 33.06 42.27 33.13 C51.4 33.73 60.3 35.05 69.31 36.56 C70.75 36.8 72.18 37.04 73.62 37.27 C77.08 37.84 80.54 38.42 84 39 C83.86 40.79 83.71 42.58 83.56 44.38 C83.44 45.87 83.44 45.87 83.32 47.4 C83 50 83 50 82 52 C72.65 51.37 63.43 50.12 54.17 48.71 C52.69 48.49 51.2 48.27 49.72 48.05 C45.85 47.47 41.98 46.88 38.12 46.3 C34.16 45.7 30.19 45.1 26.23 44.51 C18.49 43.34 10.74 42.17 3 41 C3.11 42.61 3.23 44.21 3.36 45.81 C3.43 46.71 3.49 47.6 3.56 48.52 C4.23 52.28 5.98 53.8 9 56 C13.22 58.13 16.8 58.24 21.5 58.19 C22.79 58.18 24.08 58.17 25.41 58.17 C28.41 58.03 31.09 57.7 34 57 C33.5 61.41 32.09 63.83 29 67 C24.43 69.6 19.84 69.68 14.76 68.46 C7.61 66.27 2.5 63.16 -1.92 57.07 C-4.72 51.68 -5.39 46.12 -5.38 40.12 C-5.38 39.39 -5.38 38.66 -5.38 37.9 C-5.26 31.75 -4.08 26.13 -2.5 20.2 C-0.75 13.48 -0.22 6.95 0 0 Z " fill="#090D0F" transform="translate(264,382)"/>
<path d="M0 0 C1.49 4.92 2.58 9.8 3.4 14.88 C3.66 16.37 3.91 17.86 4.16 19.36 C4.55 21.68 4.94 24.01 5.32 26.33 C5.69 28.6 6.08 30.86 6.46 33.12 C6.63 34.15 6.63 34.15 6.8 35.2 C7.6 39.88 9.01 43.74 11 48 C13.44 47.81 13.44 47.81 16 47 C18.46 43.8 18.55 39.92 19 36 C20.65 35.34 22.3 34.68 24 34 C26.17 38.35 24.01 44.43 23 49 C21.62 52.74 19.8 55.31 16.75 57.94 C13.09 59.35 9.82 59.82 6 59 C3.5 57.57 2.03 56.13 0 54 C0 53.34 0 52.68 0 52 C-0.66 52 -1.32 52 -2 52 C-2.23 52.72 -2.45 53.44 -2.69 54.19 C-4.73 58.56 -7.4 61.18 -11.69 63.38 C-17.68 64.51 -23.57 64.33 -28.81 60.94 C-35.97 55.01 -38.62 46.97 -40 38 C-40.88 27.06 -40.38 17.65 -33.19 9 C-30 5.72 -27.68 3.57 -23 3 C-15.41 3.3 -15.41 3.3 -12 5 C-12 3.68 -12 2.36 -12 1 C-7.94 0.23 -4.14 -0.1 0 0 Z M-22.81 12.12 C-28.33 19.37 -27.67 28.31 -27 37 C-26.17 42.48 -25 46.65 -21.69 51.12 C-18.59 53.29 -16.78 54 -13 54 C-9.15 52.66 -8.16 51.31 -6.25 47.7 C-4.13 41.71 -5.59 35.91 -6.69 29.81 C-6.88 28.65 -7.06 27.49 -7.26 26.29 C-8.44 17.4 -8.44 17.4 -13 10 C-17.34 9.43 -19.28 9.45 -22.81 12.12 Z " fill="#090D0F" transform="translate(603,116)"/>
<path d="M0 0 C5.54 5.11 9.27 11.43 9.66 19.07 C9.02 24.87 5.78 29.5 1.42 33.23 C2.41 33.73 2.41 33.73 3.42 34.23 C2.88 38.8 1.63 42.21 -0.58 46.23 C-6.13 44.48 -11.55 42.49 -16.96 40.32 C-18.3 39.78 -19.65 39.24 -21 38.71 C-23.08 37.88 -25.15 37.04 -27.22 36.2 C-29.26 35.37 -31.29 34.56 -33.33 33.75 C-34.53 33.27 -35.73 32.79 -36.97 32.29 C-41.12 31.08 -44.28 31.04 -48.58 31.23 C-49.46 32.92 -49.46 32.92 -49.58 35.23 C-47.45 39.1 -45.3 41.84 -41.58 44.23 C-41.91 45.55 -42.24 46.87 -42.58 48.23 C-48.86 47.15 -53.11 41.96 -57.08 37.3 C-58.99 33.4 -59.39 30.49 -58.58 26.23 C-57.05 22.7 -55.86 20.82 -52.31 19.2 C-50.08 18.44 -47.86 17.79 -45.58 17.23 C-46.05 16.55 -46.53 15.87 -47.02 15.17 C-49.14 11.18 -50.1 7.7 -49.14 3.18 C-47.23 -2.59 -44.08 -5.97 -39.14 -9.52 C-25.96 -15.94 -10.55 -8.11 0 0 Z M-38.7 3.36 C-40.94 6.79 -41.32 8.21 -40.58 12.23 C-37.15 20.45 -28.13 22.76 -20.45 25.98 C-19.03 26.55 -17.62 27.11 -16.2 27.67 C-15.2 28.08 -15.2 28.08 -14.19 28.49 C-9.93 30.11 -6.97 30.49 -2.58 29.23 C-0.46 27.77 -0.46 27.77 0.42 25.23 C0.42 20.04 -0.17 16.59 -3.88 12.67 C-11.92 5.88 -22.66 0.3 -33.37 0.79 C-35.88 1.15 -35.88 1.15 -38.7 3.36 Z " fill="#090D0F" transform="translate(972.578125,578.765625)"/>
<path d="M0 0 C4.38 3.54 6.56 6.66 7.27 12.39 C7.34 16.83 7.23 20.03 5.44 24.14 C2.37 27.28 -0.86 29.38 -5.06 30.7 C-5.72 30.37 -6.38 30.04 -7.06 29.7 C-7.44 27.45 -7.44 27.45 -7.06 24.7 C-6.07 24.08 -5.08 23.47 -4.06 22.83 C-3.07 22.13 -2.08 21.43 -1.06 20.7 C-0.31 17.16 -0.31 17.16 -1.06 13.7 C-2.6 11.66 -3.47 10.81 -6.01 10.34 C-11.6 10.47 -16.63 11.32 -22.06 12.7 C-21.07 17.16 -21.07 17.16 -20.06 21.7 C-21.71 22.03 -23.36 22.36 -25.06 22.7 C-26.05 20.06 -27.04 17.42 -28.06 14.7 C-28.68 14.88 -29.3 15.06 -29.94 15.25 C-36.44 17.13 -42.95 19.01 -49.46 20.89 C-51.88 21.59 -54.29 22.29 -56.71 22.99 C-63.52 24.96 -70.33 26.93 -77.14 28.87 C-78.96 29.39 -80.77 29.91 -82.59 30.43 C-84.66 31.03 -86.73 31.61 -88.81 32.19 C-89.88 32.49 -90.94 32.79 -92.04 33.1 C-97.98 34.29 -102.96 34.13 -108.26 31.23 C-111.83 28.21 -113.07 24.16 -114.06 19.7 C-114.22 14.88 -113.7 13.4 -110.44 9.83 C-106.66 7.45 -104.51 6.7 -100.06 6.7 C-95.15 8.13 -92.86 9.88 -89.38 13.58 C-87.48 15.42 -87.48 15.42 -85.06 16.7 C-82.4 16.57 -82.4 16.57 -79.62 15.63 C-78.56 15.33 -77.49 15.03 -76.4 14.71 C-75.3 14.38 -74.2 14.05 -73.06 13.7 C-70.93 13.1 -68.79 12.51 -66.65 11.91 C-64.39 11.26 -62.12 10.6 -59.85 9.95 C-57.37 9.23 -54.88 8.52 -52.39 7.8 C-48.52 6.68 -44.65 5.57 -40.78 4.45 C-37.01 3.36 -33.25 2.28 -29.48 1.2 C-28.32 0.86 -27.16 0.52 -25.97 0.18 C-24.89 -0.13 -23.81 -0.44 -22.69 -0.76 C-21.75 -1.04 -20.8 -1.31 -19.83 -1.59 C-12.71 -3.41 -6.46 -4.06 0 0 Z M-105.06 12.7 C-107.4 15.48 -107.4 15.48 -106.69 18.39 C-106.48 19.15 -106.27 19.92 -106.06 20.7 C-100.22 21.95 -95.8 21.28 -90.06 19.7 C-90.06 19.04 -90.06 18.38 -90.06 17.7 C-93.76 14.47 -96.38 12.37 -101.38 12.2 C-102.59 12.37 -103.81 12.53 -105.06 12.7 Z " fill="#090D0F" transform="translate(1015.0625,365.296875)"/>
<path d="M0 0 C5.74 3.5 10.87 7.63 14.5 13.38 C15.27 17.41 15.09 21.03 14 25 C10.45 30.06 6.8 30.92 1 32 C1.47 32.5 1.95 32.99 2.44 33.5 C4.55 36.89 5.1 40.07 5 44 C3.63 48.97 1.4 52.72 -2.76 55.78 C-7.41 58.32 -11.88 57.86 -17 57 C-24.32 54.63 -31.28 51.23 -38.25 48 C-40.17 47.13 -42.09 46.26 -44.01 45.4 C-48.69 43.29 -53.35 41.15 -58 39 C-57.34 34.44 -56.22 31.05 -54 27 C-48.44 28.7 -43.12 30.75 -37.8 33.1 C-36.84 33.53 -36.84 33.53 -35.86 33.96 C-33.19 35.15 -30.52 36.34 -27.85 37.54 C-25.88 38.42 -23.91 39.29 -21.93 40.16 C-20.77 40.68 -19.6 41.2 -18.41 41.74 C-14.86 43.05 -11.78 43.77 -8 44 C-7.01 43.34 -6.02 42.68 -5 42 C-4.49 38.15 -4.47 35.87 -6.52 32.52 C-9.73 29.26 -13.02 27.81 -17.2 26.05 C-17.98 25.7 -18.77 25.36 -19.59 25 C-22.09 23.9 -24.61 22.83 -27.12 21.75 C-28.82 21.01 -30.52 20.27 -32.22 19.53 C-35.32 18.18 -38.43 16.84 -41.53 15.5 C-43.37 14.71 -45.21 13.9 -47 13 C-46.52 11.54 -46.04 10.08 -45.56 8.62 C-45.3 7.81 -45.03 7 -44.75 6.16 C-44 4 -44 4 -43 2 C-37.99 2.58 -33.82 4.23 -29.29 6.34 C-27.8 7.02 -26.32 7.7 -24.83 8.37 C-22.51 9.43 -20.19 10.5 -17.88 11.57 C-15.62 12.61 -13.37 13.63 -11.11 14.66 C-10.43 14.98 -9.75 15.3 -9.05 15.63 C-4.07 17.86 0.56 18.67 6 19 C5.59 13.71 4.72 10.83 1 7 C0.01 6.34 -0.98 5.68 -2 5 C-1.34 3.35 -0.68 1.7 0 0 Z " fill="#090D0F" transform="translate(363,310)"/>
<path d="M0 0 C4.97 4.25 8.94 8.14 9.76 14.86 C10.3 26.3 4.88 34.96 -2.55 43.36 C-10 49.87 -16.95 53.97 -27.02 53.74 C-32.73 52.88 -36.81 49.45 -40.48 45.17 C-43.94 40.47 -44.08 37.09 -43.55 31.36 C-42.75 28.27 -41.72 25.32 -40.55 22.36 C-46.19 20.52 -51.63 19.81 -57.55 19.36 C-57.22 17.71 -56.89 16.06 -56.55 14.36 C-48.95 13.97 -42.7 14.75 -35.55 17.36 C-35.31 16.64 -35.08 15.92 -34.84 15.18 C-31.44 7.76 -23.87 1.73 -16.55 -1.64 C-10.83 -3.4 -5.1 -3.29 0 0 Z M-29.38 17.13 C-31.21 20.63 -30.62 23.5 -29.82 27.26 C-29.73 27.95 -29.64 28.64 -29.55 29.36 C-32.01 31.82 -34.25 32.36 -37.55 33.36 C-37.27 38.21 -37.27 38.21 -34.92 42.3 C-31.01 44.05 -27.64 44.05 -23.56 42.7 C-14.2 38.49 -8.13 30.32 -3.55 21.36 C-2.24 17.41 -2.08 14.47 -3.73 10.55 C-6.21 7.56 -7.92 5.52 -11.91 5.13 C-18.75 5.73 -25.12 12.08 -29.38 17.13 Z " fill="#090D0F" transform="translate(464.546875,714.640625)"/>
<path d="M0 0 C5.1 3.94 9.1 8.39 10.38 14.88 C10.58 21.58 8.8 25.91 4.38 30.88 C3.08 32.24 1.76 33.59 0.38 34.88 C2.6 39.32 5.11 41.39 9.38 43.88 C10.37 44.2 11.36 44.53 12.38 44.88 C12.04 46.19 11.72 47.51 11.38 48.88 C4.42 49.03 1.2 45.47 -3.68 40.81 C-4.32 40.17 -4.96 39.53 -5.62 38.88 C-8.58 39.84 -11.51 40.83 -14.41 41.95 C-22.65 45.01 -30.45 46.5 -39 43.81 C-44.73 39.58 -48.51 35.08 -49.62 27.88 C-49.71 20.77 -47.8 15.28 -42.93 10.06 C-32.64 0.41 -13.42 -7.95 0 0 Z M-37.69 23.25 C-39.04 27.02 -38.89 30.08 -37.62 33.88 C-35.52 36.51 -34.02 37.61 -30.68 38.25 C-23.17 38.68 -15.82 36 -9.62 31.88 C-9.37 28.29 -9.37 28.29 -9.62 24.88 C-2 23.75 -2 23.75 1.38 24.88 C3.86 21.15 3.84 19.28 3.38 14.88 C1.05 11.93 -0.95 10.09 -4.73 9.6 C-17.26 9.12 -29.42 13.73 -37.69 23.25 Z " fill="#090D0F" transform="translate(960.625,308.125)"/>
<path d="M0 0 C11.34 7.02 18.99 16.74 22.31 29.81 C23.36 35.89 21.79 40.84 18.31 45.81 C15.04 49.27 11.07 52.57 6.2 53 C-0.03 52.47 -3.59 50.53 -7.69 45.81 C-11.45 40.59 -11.48 35.02 -10.69 28.81 C-9.1 23.78 -6.54 19.24 -3.69 14.81 C-7.58 11.7 -10.44 10.02 -15.66 10.29 C-20.39 11.5 -23.57 15.07 -26.12 19.06 C-27.26 24.61 -27.26 30.36 -25.69 35.81 C-27.01 36.8 -28.33 37.79 -29.69 38.81 C-33.1 30.56 -34.33 21.89 -31.96 13.12 C-29.32 6.77 -25.72 1.59 -19.5 -1.62 C-12.62 -4.34 -6.47 -3.38 0 0 Z M0.31 17.81 C-3.31 23.92 -4.71 28.7 -3.69 35.81 C-2.59 38.7 -2.59 38.7 -0.69 40.81 C-0.09 41.58 0.51 42.34 1.12 43.12 C3.27 45.05 3.27 45.05 6.38 45.31 C9.32 45.05 9.32 45.05 11.25 43.31 C13.09 38.98 12.13 35.02 10.55 30.76 C8.28 25.83 5.18 21.63 1.31 17.81 C0.98 17.81 0.65 17.81 0.31 17.81 Z " fill="#090D0F" transform="translate(880.6875,684.1875)"/>
<path d="M0 0 C4.09 3.29 6.79 6.86 8 12 C8.81 19.83 7.89 26.71 5 34 C4.67 34.83 4.34 35.67 4 36.53 C0.59 44.19 -4.91 51.34 -12.62 55.06 C-19.18 56.88 -23.89 56.21 -29.91 53.25 C-33.43 51.15 -34.92 49.63 -37 46 C-37.99 40.11 -37.49 34.96 -34 30 C-29.02 24.76 -24.52 22.18 -17.13 21.8 C-15.8 21.82 -14.46 21.84 -13.12 21.88 C-12.09 21.89 -12.09 21.89 -11.04 21.9 C-9.36 21.93 -7.68 21.96 -6 22 C-5.75 17.79 -5.59 14.12 -7.06 10.12 C-10.7 6.14 -14.69 5.15 -19.94 4.56 C-25.5 4.78 -30.02 7.45 -34.31 10.81 C-34.87 11.2 -35.43 11.6 -36 12 C-36.99 11.67 -37.98 11.34 -39 11 C-35.89 4.03 -29.93 0.63 -23.11 -2.24 C-14.63 -5.3 -7.73 -4.52 0 0 Z M-24.51 31.46 C-27.38 34.83 -28.9 37.05 -29.38 41.44 C-29.36 45.06 -29.36 45.06 -26.94 47.12 C-23.59 48.12 -21.86 47.79 -18.77 46.2 C-12.69 42.06 -9.36 35.82 -7 29 C-7 28.34 -7 27.68 -7 27 C-13.5 26.6 -19.51 26.61 -24.51 31.46 Z " fill="#090D0F" transform="translate(556,762)"/>
<path d="M0 0 C6.94 5.97 10.46 12.27 11.69 21.31 C12.3 33.56 11.99 43.74 3.69 53.31 C-0.6 57.42 -4.53 58.64 -10.44 58.88 C-15.47 58.63 -18.64 57.98 -22.31 54.31 C-25.38 49.09 -26.2 44.24 -25.31 38.31 C-23.37 31.62 -19.23 27.75 -13.31 24.31 C-9.67 22.59 -6.39 21.31 -2.31 21.31 C-2.6 20.69 -2.89 20.06 -3.19 19.41 C-3.56 18.6 -3.93 17.78 -4.31 16.94 C-4.68 16.13 -5.05 15.31 -5.44 14.48 C-6.31 12.31 -6.31 12.31 -6.31 10.31 C-12.18 7.75 -17.28 7.97 -23.27 9.96 C-28.11 12.26 -29.92 15.6 -32.07 20.39 C-33.31 22.31 -33.31 22.31 -35.46 23.08 C-36.07 23.16 -36.68 23.23 -37.31 23.31 C-36.96 14.94 -32.46 9.08 -26.5 3.44 C-18.62 -2.99 -9.24 -4.71 0 0 Z M-12.14 31.03 C-15.48 34.86 -17.17 37.45 -17.56 42.69 C-17.29 46.58 -16.94 48.43 -14.31 51.31 C-11.4 52.23 -11.4 52.23 -8.31 51.31 C-3.91 47.31 -1.99 43.26 -1.31 37.31 C-1.17 33.31 -1.19 29.32 -1.31 25.31 C-5.12 25.31 -9.51 28.55 -12.14 31.03 Z " fill="#090D0F" transform="translate(684.3125,775.6875)"/>
<path d="M0 0 C11.18 -0.57 18.51 0.19 27.31 7.25 C32.26 11.89 35.12 16.64 35.5 23.5 C35.19 29.7 32.61 34.18 28.56 38.75 C27.72 39.49 26.87 40.24 26 41 C25.3 41.66 24.6 42.32 23.88 43 C14.47 49.54 3.47 53.29 -8 52 C-14.39 50.26 -18.32 47.46 -22 42 C-24.28 37.88 -24.73 33.63 -24 29 C-21.59 24.18 -18.81 21.41 -14 19 C-8.51 17.66 -3.33 17.42 1.91 19.71 C6.42 22.5 10.4 26.11 14 30 C14 30.66 14 31.32 14 32 C18.44 29.6 21.03 27.5 22.88 22.75 C23.09 17.92 21.56 14.07 18.66 10.22 C13.66 5.22 7.81 4.65 1 4 C0.67 2.68 0.34 1.36 0 0 Z M-16 30 C-17.41 32.93 -17.41 32.93 -17 36 C-14.93 38.68 -13.72 39.85 -10.37 40.53 C-2.87 40.45 3.14 39.03 10 36 C10 35.01 10 34.02 10 33 C4.71 28.07 0.69 25.49 -6.68 25.69 C-10.68 26.23 -12.82 27.48 -16 30 Z " fill="#090D0F" transform="translate(346,602)"/>
<path d="M0 0 C5.4 1.74 8.27 5.15 11 10 C12.67 20.23 10.61 31.38 9.62 41.62 C9.53 42.62 9.53 42.62 9.43 43.64 C9.25 45.56 9.05 47.49 8.85 49.41 C8.74 50.54 8.62 51.66 8.5 52.82 C7.99 56.05 7.12 58.93 6 62 C2.37 61.67 -1.26 61.34 -5 61 C-6.35 56.96 -5.66 53.39 -5.19 49.24 C-5 47.46 -4.81 45.68 -4.62 43.91 C-4.31 41.11 -4 38.32 -3.69 35.53 C-3.39 32.83 -3.1 30.13 -2.81 27.43 C-2.72 26.6 -2.62 25.78 -2.52 24.93 C-1.97 19.74 -2.17 15.16 -3 10 C-8.74 9.44 -8.74 9.44 -13.75 11.88 C-21.55 22.72 -22.22 36.09 -23 49 C-21.58 48.91 -21.58 48.91 -20.12 48.81 C-19.09 48.87 -18.06 48.94 -17 49 C-14.69 52.47 -14.58 53.92 -15 58 C-16.12 59.88 -16.12 59.88 -18 61 C-20.94 61.44 -20.94 61.44 -24 61 C-27.37 58.47 -28.71 55.95 -30 52 C-31.41 36.62 -28.57 19.47 -19 7 C-12.87 0.42 -8.85 -0.99 0 0 Z " fill="#090D0F" transform="translate(619,773)"/>
<path d="M0 0 C3.35 1.95 5.23 3.56 6.56 7.31 C7.1 11.62 7.29 15.07 5.06 18.88 C4.57 19.35 4.07 19.82 3.56 20.31 C0.62 19.94 0.62 19.94 -2.44 19.31 C-4.04 16.11 -2.47 13.59 -1.44 10.31 C-3.66 7.49 -4.76 6.4 -8.38 5.94 C-12.62 7.84 -13.53 10.47 -15.46 14.57 C-17.48 20.24 -17.65 25.87 -17.69 31.81 C-17.71 32.55 -17.73 33.28 -17.75 34.04 C-17.78 38.86 -17.12 42.14 -14.44 46.31 C-11.01 48.59 -9.6 48.61 -5.56 48.62 C-4.53 48.64 -3.51 48.66 -2.45 48.68 C0.93 48.27 2.76 47.17 5.56 45.31 C6.22 45.31 6.88 45.31 7.56 45.31 C7.81 44.74 8.06 44.16 8.31 43.56 C9.73 41.01 11.44 39.29 13.56 37.31 C14.55 37.97 15.54 38.63 16.56 39.31 C11.36 48.96 6.44 54.84 -4.02 58.62 C-10.44 60.46 -15.61 59.13 -21.44 56.31 C-26.91 53.13 -29.32 48.1 -31.44 42.31 C-33.99 31.31 -32.34 18.01 -26.44 8.31 C-20 -0.97 -10.77 -4.88 0 0 Z " fill="#090D0F" transform="translate(676.4375,115.6875)"/>
<path d="M0 0 C1.32 0 2.64 0 4 0 C4 0.99 4 1.98 4 3 C9.28 2.34 14.56 1.68 20 1 C24 10.75 24 10.75 24 13 C18.39 13.99 12.78 14.98 7 16 C7.5 20.45 7.5 20.45 8 25 C6.35 25 4.7 25 3 25 C2.5 21.04 2.5 21.04 2 17 C-3.3 17.81 -8.6 18.63 -13.91 19.45 C-15.71 19.73 -17.51 20.01 -19.31 20.29 C-21.91 20.68 -24.51 21.09 -27.1 21.49 C-27.9 21.61 -28.7 21.73 -29.53 21.86 C-33.86 22.54 -37.86 23.47 -42 25 C-42.5 27.83 -42.5 27.83 -42 31 C-38.02 34.49 -34.03 35.79 -29 37 C-28.67 38.65 -28.34 40.3 -28 42 C-37.63 41.02 -45.39 39.47 -52 32 C-53.57 27.28 -54.28 21.77 -52.13 17.12 C-47.14 10.61 -39.45 9.48 -31.86 8.39 C-31 8.27 -30.15 8.14 -29.28 8 C-26.58 7.6 -23.88 7.21 -21.19 6.81 C-19.36 6.54 -17.53 6.26 -15.7 5.99 C-2.44 4 -2.44 4 0 4 C0 2.68 0 1.36 0 0 Z " fill="#090D0F" transform="translate(995,407)"/>
<path d="M0 0 C3.27 2.77 5.1 5.16 5.81 9.38 C5.32 17.84 1.35 25.19 -2.38 32.62 C-2.99 33.88 -3.61 35.13 -4.22 36.38 C-5.85 39.7 -7.5 43 -9.15 46.3 C-10.21 48.42 -11.26 50.53 -12.31 52.65 C-16.58 61.23 -20.88 69.81 -25.19 78.38 C-26.46 78.23 -27.72 78.09 -29.03 77.94 C-29.74 77.86 -30.46 77.78 -31.19 77.7 C-33.47 77.33 -35.23 76.6 -37.19 75.38 C-36.58 71.56 -35.46 68.55 -33.72 65.11 C-32.95 63.58 -32.95 63.58 -32.16 62.01 C-31.6 60.91 -31.05 59.82 -30.47 58.69 C-29.9 57.55 -29.33 56.42 -28.74 55.25 C-27.23 52.24 -25.71 49.23 -24.18 46.22 C-22.04 41.98 -19.9 37.74 -17.77 33.5 C-16.63 31.25 -15.49 28.99 -14.35 26.74 C-13.84 25.72 -13.32 24.69 -12.79 23.64 C-12.1 22.29 -12.1 22.29 -11.41 20.92 C-9.11 16.13 -7.94 12.75 -8.19 7.38 C-9.93 6.58 -9.93 6.58 -12.19 6.38 C-14.81 7.77 -14.81 7.77 -17.19 9.38 C-17.85 9.38 -18.51 9.38 -19.19 9.38 C-19.85 10.7 -20.51 12.01 -21.19 13.38 C-22.84 13.04 -24.49 12.72 -26.19 12.38 C-24.2 6.32 -20.16 3.13 -15.19 -0.62 C-9.53 -3.4 -5.54 -2.82 0 0 Z " fill="#090D0F" transform="translate(506.1875,741.625)"/>
<path d="M0 0 C1.98 4.95 3.96 9.9 6 15 C8.64 14.34 11.28 13.68 14 13 C14.33 14.32 14.66 15.64 15 17 C12.69 18.32 10.38 19.64 8 21 C9.65 25.45 11.3 29.9 12.96 34.34 C13.52 35.85 14.09 37.36 14.65 38.88 C15.46 41.06 16.27 43.24 17.08 45.41 C17.33 46.08 17.58 46.75 17.83 47.44 C18.98 50.5 20.21 53.42 21.68 56.35 C23 59 23 59 23 61 C25.64 61 28.28 61 31 61 C32.57 55.97 33.45 51.24 34 46 C35.98 45.5 35.98 45.5 38 45 C39.27 53.08 39.55 60.71 35.25 67.94 C31.53 71.34 28.47 72.85 23.44 73.38 C17.66 72.74 14.87 70.21 11.25 65.79 C9.06 62.65 7.79 59.21 6.45 55.64 C6.15 54.86 5.84 54.08 5.53 53.27 C4.89 51.63 4.27 49.98 3.64 48.33 C2.68 45.8 1.71 43.29 0.73 40.77 C0.12 39.16 -0.5 37.56 -1.11 35.96 C-1.4 35.2 -1.69 34.45 -1.99 33.67 C-3.13 30.65 -4 28.26 -4 25 C-5.32 25.33 -6.64 25.66 -8 26 C-8.66 24.68 -9.32 23.36 -10 22 C-9.01 21.01 -8.02 20.02 -7 19 C-8.65 14.38 -10.3 9.76 -12 5 C-3.38 0 -3.38 0 0 0 Z " fill="#090D0F" transform="translate(514,119)"/>
<path d="M0 0 C3.47 0.87 5.03 1.48 7.86 3.37 C8.98 4.12 8.98 4.12 10.12 4.87 C10.92 5.41 11.71 5.95 12.54 6.5 C13.37 7.06 14.2 7.62 15.06 8.19 C16.83 9.37 18.6 10.56 20.36 11.74 C23.02 13.54 25.69 15.32 28.37 17.1 C36.33 22.43 44.25 27.77 51.9 33.53 C56.22 36.56 59.74 37.39 65 38 C66.02 31.52 62.43 27.16 59 22 C59.99 20.51 59.99 20.51 61 19 C64.34 20.4 66.02 21.95 68.12 24.88 C68.62 25.55 69.12 26.23 69.63 26.93 C72.98 31.99 73.85 35.96 73 42 C70.81 46.38 68.57 49.13 64 51 C53.41 52.64 45.24 45.32 37.11 39.38 C28.28 32.96 19.11 27.03 10.01 21 C5 17.68 0 14.34 -5 11 C-3.35 7.37 -1.7 3.74 0 0 Z " fill="#090D0F" transform="translate(327,255)"/>
<path d="M0 0 C3.88 0.57 5.76 2.34 8.56 5 C12.12 8.3 15.72 11.46 19.5 14.5 C23.09 17.41 26.58 20.39 30 23.5 C35.17 28.21 40.55 32.62 46 37 C46.83 37.7 47.66 38.4 48.52 39.12 C49.69 40.08 49.69 40.08 50.88 41.06 C51.55 41.63 52.23 42.2 52.93 42.79 C55.47 44.28 57.1 44.31 60 44 C60.33 43.67 60.66 43.34 61 43 C60.71 39.23 60.34 36.57 58.38 33.31 C57 31 57 31 57.12 28.75 C58 27 58 27 61 26 C61.96 27.56 62.92 29.12 63.88 30.69 C64.41 31.56 64.94 32.43 65.49 33.32 C68.33 38.35 69.61 42.16 69 48 C66.3 53.01 63.7 56.14 58.25 57.88 C48.61 58.25 42.48 51.53 35.75 45.55 C32.89 43.01 29.97 40.54 27.06 38.06 C23.5 35.01 19.94 31.95 16.39 28.89 C9.34 22.82 2.23 16.85 -5 11 C-4.27 6.49 -2.68 3.72 0 0 Z " fill="#090D0F" transform="translate(354,220)"/>
<path d="M0 0 C1.64 1.21 1.64 1.21 3 3 C3.3 5.34 3.3 5.34 3.31 7.94 C3.62 11.87 3.73 12.7 6.5 15.75 C15.35 18.91 27.72 12.13 36.38 9.09 C38.37 8.39 40.37 7.7 42.36 7.02 C44.13 6.4 44.13 6.4 45.93 5.77 C49 5 49 5 53 6 C53.99 9.63 54.98 13.26 56 17 C54.97 17.33 53.95 17.66 52.89 18.01 C48.99 19.27 45.08 20.53 41.18 21.8 C39.51 22.34 37.84 22.88 36.17 23.42 C33.73 24.21 31.29 25 28.85 25.79 C28.04 26.05 27.24 26.31 26.4 26.58 C22.2 27.95 18.01 29.33 13.83 30.74 C13 31.02 12.17 31.29 11.32 31.58 C9.74 32.12 8.16 32.65 6.58 33.19 C1.22 35 1.22 35 -1 35 C-2.32 31.37 -3.64 27.74 -5 24 C-3.02 23.01 -1.04 22.02 1 21 C0.44 20.59 -0.11 20.17 -0.69 19.75 C-1.45 19.17 -2.21 18.6 -3 18 C-3.87 17.44 -4.73 16.89 -5.62 16.31 C-8.77 13.25 -9.83 10.38 -10 6 C-7.8 0.83 -5.55 -0.54 0 0 Z " fill="#090D0F" transform="translate(306,565)"/>
<path d="M0 0 C3.56 1.42 5.99 2.5 9.05 4.55 C10.19 5.31 10.19 5.31 11.36 6.09 C12.57 6.91 12.57 6.91 13.81 7.74 C14.65 8.31 15.5 8.87 16.37 9.45 C19.06 11.26 21.75 13.07 24.44 14.88 C26.24 16.09 28.05 17.29 29.85 18.5 C33.18 20.73 36.5 22.96 39.82 25.19 C43.21 27.47 46.6 29.74 50 32 C48.55 36.11 46.49 39.43 44 43 C39.25 41.12 39.25 41.12 37 40 C37.33 40.99 37.66 41.98 38 43 C38.51 46.79 38.82 50.42 37.02 53.89 C35.28 56.09 33.48 57.74 31 59.06 C27.77 58.96 25.26 57.26 23 55 C22.69 52.12 22.69 52.12 23 49 C24.88 47.12 24.88 47.12 27 46 C27.66 46 28.32 46 29 46 C29.6 41.86 29.8 38.13 29 34 C26.29 30.68 22.96 28.83 19.25 26.75 C18.29 26.17 17.34 25.58 16.35 24.98 C14.45 23.82 12.54 22.67 10.62 21.55 C7.27 19.57 4.04 17.47 0.81 15.31 C-0.09 14.73 -0.99 14.15 -1.92 13.55 C-4 12 -4 12 -6 9 C-4.02 6.03 -2.04 3.06 0 0 Z " fill="#090D0F" transform="translate(901,630)"/>
<path d="M0 0 C2.5 2.12 2.5 2.12 4 5 C3.94 8.46 3.85 10.88 1.72 13.68 C-1.03 15.79 -3.47 15.54 -6.83 15.41 C-9 15 -9 15 -11.62 12.94 C-13.44 9.05 -13.26 7.08 -12 3 C-8.27 -1.39 -5.42 -1.67 0 0 Z " fill="#090D0F" transform="translate(339,484)"/>
<path d="M0 0 C1.94 1.06 1.94 1.06 3 3 C3.76 9.86 3.76 9.86 1.38 13.44 C-1.64 15.42 -3.37 16.07 -7 16 C-10.38 13.94 -10.38 13.94 -13 11 C-13.62 8 -13.62 8 -13 5 C-9.07 -0.9 -6.88 -1.45 0 0 Z " fill="#090D0F" transform="translate(815,206)"/>
</svg>
