<svg xmlns="http://www.w3.org/2000/svg" width="17" height="17" viewBox="0 0 17 17" fill="none">
<path d="M11.4389 5.98102C12.4815 5.98102 13.4813 6.39516 14.2185 7.13234C14.9557 7.86953 15.3698 8.86936 15.3698 9.91189V14.4979H12.7492V9.91189C12.7492 9.56438 12.6112 9.2311 12.3654 8.98538C12.1197 8.73965 11.7864 8.6016 11.4389 8.6016C11.0914 8.6016 10.7581 8.73965 10.5124 8.98538C10.2667 9.2311 10.1286 9.56438 10.1286 9.91189V14.4979H7.50806V9.91189C7.50806 8.86936 7.9222 7.86953 8.65938 7.13234C9.39656 6.39516 10.3964 5.98102 11.4389 5.98102Z" stroke="white" stroke-width="1.07137" stroke-linecap="round" stroke-linejoin="round"/>
<path d="M4.88743 6.63617H2.26685V14.4979H4.88743V6.63617Z" stroke="white" stroke-width="1.07137" stroke-linecap="round" stroke-linejoin="round"/>
<path d="M3.57714 4.67075C4.30079 4.67075 4.88743 4.08412 4.88743 3.36046C4.88743 2.63681 4.30079 2.05017 3.57714 2.05017C2.85348 2.05017 2.26685 2.63681 2.26685 3.36046C2.26685 4.08412 2.85348 4.67075 3.57714 4.67075Z" stroke="white" stroke-width="1.07137" stroke-linecap="round" stroke-linejoin="round"/>
</svg>