<?xml version="1.0" encoding="UTF-8"?>
<!-- Generator: visioncortex VTracer 0.6.3 -->
<svg version="1.1" xmlns="http://www.w3.org/2000/svg" width="1280" height="1280">
<path d="M0 0 C3.37 -0 6.75 -0.02 10.12 -0.04 C39.78 -0.12 39.78 -0.12 44.79 4.75 C46.61 8.59 46.98 10.74 46.26 14.88 C44.99 18.35 42.87 20.66 40.3 23.26 C38.31 25.19 38.31 25.19 36.65 27.74 C33.4 31.3 29.45 32.32 24.99 33.77 C19.93 35.57 17.85 37.95 14.42 42.19 C12.03 43.86 9.49 45.19 6.92 46.56 C1.59 49.54 -1.82 51.88 -4.56 57.5 C-6.05 59.95 -8.31 60.65 -10.83 61.87 C-14.02 64.26 -15.36 67.92 -17.11 71.42 C-19.4 75.7 -22.42 79.35 -26.12 82.49 C-28.18 84.88 -28.84 87.39 -29.83 90.37 C-31.44 94.79 -32.84 97.85 -36.21 101.12 C-41.11 106.2 -41.42 112.46 -42.58 119.19 C-44.38 127.64 -46.36 135.58 -50.58 143.19 C-56.73 157.43 -54.99 180.2 -51.58 195.19 C-50.33 197.99 -50.33 197.99 -48.77 200.62 C-44.74 207.71 -43.7 215.42 -42.32 223.38 C-41.1 230.3 -39.93 236.19 -34.71 241.25 C-31.77 244.48 -30.52 247.7 -29.08 251.81 C-27.11 257.34 -25.29 259.61 -20.58 263.19 C-19.39 264.94 -18.25 266.74 -17.15 268.56 C-14.13 273.51 -10.85 277.3 -6.58 281.19 C-4.86 282.81 -3.21 284.46 -1.58 286.19 C-1.58 286.85 -1.58 287.51 -1.58 288.19 C-0.26 288.85 1.06 289.51 2.42 290.19 C2.42 290.85 2.42 291.51 2.42 292.19 C3.15 292.46 3.88 292.73 4.63 293.01 C7.3 294.14 9.56 295.4 11.98 297 C12.72 297.48 13.47 297.96 14.23 298.45 C16.42 300.19 16.42 300.19 18.24 302.7 C21.38 306.28 25.19 307.26 29.58 308.68 C33.57 310.11 36.02 311.65 39.01 314.69 C44.35 319.62 50.7 320.14 57.67 321.25 C66.5 322.7 73.89 324.42 81.72 328.88 C87.15 331.51 92.85 331.35 98.78 331.39 C99.57 331.39 100.36 331.4 101.18 331.41 C102.85 331.42 104.51 331.42 106.18 331.43 C108.71 331.44 111.24 331.47 113.77 331.5 C124.1 331.57 131.83 330.83 141.1 325.75 C150.87 321.14 162.41 320.16 173.03 318.69 C173.81 318.52 174.6 318.36 175.42 318.19 C176.12 316.87 176.78 315.53 177.42 314.19 C181.21 311.01 184.31 309.08 189.04 307.69 C193.36 306.38 195.31 304.51 198.42 301.19 C203.02 297.69 207.8 294.53 212.79 291.62 C216.45 289.39 218.07 286.78 220.42 283.19 C221.7 282.21 223.02 281.27 224.35 280.37 C228.29 277.59 230.07 274.75 232.2 270.49 C234.59 265.95 237.7 261.76 241.49 258.29 C243.72 255.85 244.33 253.97 245.23 250.81 C246.87 245.92 248.64 243.47 252.77 240.45 C254.65 239.14 254.65 239.14 256.23 236.5 C259.61 232.93 263.56 231.67 268.42 231.19 C273.05 233.21 275.21 235.72 277.42 240.19 C277.92 243.62 277.92 243.62 278.1 247.51 C278.13 248.21 278.16 248.91 278.2 249.63 C278.52 257.08 278.57 264.54 278.54 272 C278.54 273.05 278.54 273.05 278.54 274.13 C278.39 329.4 278.39 329.4 271.42 340.19 C270.91 340.61 270.41 341.04 269.88 341.49 C267.74 343.97 267.48 346.36 266.85 349.56 C266.6 350.81 266.35 352.05 266.1 353.33 C265.46 356.94 264.95 360.55 264.48 364.19 C263.73 369.29 262.79 372.3 259.42 376.19 C258.88 376.8 258.34 377.42 257.79 378.06 C256.42 379.19 256.42 379.19 254.42 379.19 C254.23 380.27 254.05 381.36 253.86 382.47 C253.61 383.92 253.36 385.37 253.1 386.81 C252.93 387.88 252.93 387.88 252.75 388.97 C251.82 394.12 250.74 399.09 246.7 402.73 C246.11 403.13 245.52 403.53 244.92 403.94 C241.07 407.01 240.36 409.92 239.22 414.59 C237.51 420.11 234 424.68 229.85 428.62 C227.42 431.18 226.46 433.07 225.04 436.25 C223.41 439.75 222.39 441.62 218.85 443.25 C215.07 445.38 214.88 445.85 213.48 449.69 C211.91 453.87 211.91 453.87 209.5 455.41 C208.08 456 206.66 456.59 205.24 457.16 C202.13 458.91 201.57 461.96 200.42 465.19 C198.07 468.26 196.97 469.06 193.17 469.94 C192.26 470.02 191.35 470.1 190.42 470.19 C190.08 471.79 190.08 471.79 189.73 473.44 C188.24 477.69 187.23 478.89 183.42 481.19 C182.2 481.47 180.98 481.76 179.73 482.06 C178.64 482.43 177.54 482.8 176.42 483.19 C175.23 486.07 175.23 486.07 174.42 489.19 C171.58 492.11 168.7 493.51 164.98 495 C161.56 496.42 159.67 497.75 157.42 500.69 C153.39 505.88 147.74 507.98 141.35 508.94 C140.38 509.02 139.41 509.1 138.42 509.19 C138.11 510.3 138.11 510.3 137.79 511.44 C135.77 515.48 132.65 517.4 128.4 518.89 C125.45 519.72 122.49 520.46 119.52 521.16 C114.43 522.5 112.65 523.92 109.42 528.19 C103.54 531.36 97.64 532.11 91.09 533 C84.17 534.03 78.76 536.4 72.6 539.75 C59.06 546.56 42.61 545.35 27.82 545.35 C26.02 545.36 24.21 545.36 22.41 545.36 C18.65 545.37 14.88 545.37 11.11 545.37 C6.34 545.37 1.56 545.38 -3.21 545.4 C-6.93 545.41 -10.65 545.41 -14.37 545.41 C-16.13 545.42 -17.89 545.42 -19.65 545.43 C-28.64 545.46 -37.53 545.25 -46.48 544.29 C-47.22 544.21 -47.96 544.13 -48.72 544.05 C-55.82 543.2 -60.86 540.91 -66.8 537.15 C-70.72 534.91 -74.47 534.23 -78.9 533.62 C-80.4 533.38 -81.9 533.14 -83.4 532.89 C-84.12 532.77 -84.84 532.66 -85.58 532.54 C-92.62 531.31 -98.11 530 -102.58 524.19 C-102.58 523.53 -102.58 522.87 -102.58 522.19 C-104.19 522.06 -104.19 522.06 -105.83 521.94 C-112.61 521.07 -120.75 519.49 -125.77 514.56 C-127.58 512.19 -127.58 512.19 -128.58 510.19 C-131.63 509.12 -134.67 508.18 -137.77 507.3 C-142.72 505.79 -145.91 503.87 -149.58 500.19 C-149.95 498.86 -150.29 497.53 -150.58 496.19 C-152.5 495.19 -152.5 495.19 -154.83 494.69 C-158.86 493.49 -161.64 492.31 -164.58 489.19 C-165.9 485.94 -165.9 485.94 -166.58 483.19 C-167.45 483.12 -168.32 483.06 -169.21 483 C-173.47 481.97 -175.5 480.27 -178.58 477.19 C-179.02 475.92 -179.02 475.92 -179.46 474.62 C-180.81 471.69 -181.59 471.53 -184.46 470.25 C-188.62 468.39 -190.41 466.27 -192.58 462.19 C-193.08 460.7 -193.08 460.7 -193.58 459.19 C-194.51 458.73 -195.44 458.28 -196.4 457.81 C-199.95 456 -201.42 454.5 -203.58 451.19 C-203.87 450.15 -204.16 449.12 -204.46 448.06 C-205.97 444.19 -207.92 443.95 -211.58 442.19 C-214.25 438.93 -215.5 436.53 -216.52 432.44 C-216.87 431.36 -217.22 430.29 -217.58 429.19 C-219.96 428 -219.96 428 -222.58 427.19 C-226.72 422.92 -228.03 418.21 -229.47 412.62 C-231 407.43 -233.14 406 -237.58 403.19 C-240.78 398.2 -241.73 392.76 -242.78 387.02 C-244 381.44 -246.06 379.59 -250.58 376.19 C-254.19 370.4 -254.5 362.21 -255.41 355.57 C-256.06 351.09 -256.93 347.95 -259.58 344.19 C-277.66 315.17 -270.62 245.99 -264.58 213.19 C-263.54 208.74 -262.56 205.33 -259.58 201.82 C-257.35 198.88 -256.74 196.84 -256.02 193.25 C-255.78 192.11 -255.54 190.98 -255.29 189.81 C-254.81 187.37 -254.37 184.92 -253.94 182.47 C-252.57 174.99 -251.34 170.32 -245.58 165.19 C-244.92 165.19 -244.26 165.19 -243.58 165.19 C-243.46 163.58 -243.46 163.58 -243.33 161.94 C-242.46 155.16 -240.89 147.02 -235.96 142 C-233.58 140.19 -233.58 140.19 -231.58 139.19 C-230.94 137.35 -230.37 135.49 -229.83 133.62 C-227.58 126.57 -224.36 121.76 -218.96 116.75 C-216.64 114.25 -215.94 112.79 -214.77 109.69 C-212.92 105.09 -210.67 103.71 -206.4 101.43 C-203.47 99.42 -202.82 96.42 -201.58 93.19 C-199.32 91.04 -197.42 89.54 -194.55 88.33 C-192.13 86.92 -191.65 85.8 -190.58 83.25 C-189.05 79.95 -187.92 77.9 -184.58 76.19 C-181.83 75.5 -181.83 75.5 -179.58 75.19 C-179.21 73.82 -179.21 73.82 -178.83 72.44 C-177.48 68.91 -176.61 67.42 -173.58 65.19 C-172.22 64.85 -170.84 64.57 -169.46 64.31 C-167.37 63.94 -167.37 63.94 -165.58 63.19 C-164.32 60.31 -164.32 60.31 -163.58 57.19 C-159.93 53.53 -155.33 51.16 -150.58 49.19 C-149.92 49.19 -149.26 49.19 -148.58 49.19 C-148.27 48.05 -148.27 48.05 -147.94 46.88 C-146.17 43.36 -144.43 42.65 -140.9 41 C-139.82 40.49 -138.74 39.98 -137.64 39.45 C-135.24 38.46 -133.1 37.73 -130.58 37.19 C-126.57 35.85 -125.8 33.69 -123.58 30.19 C-118.46 27.1 -113.21 26.05 -107.42 24.99 C-101.91 23.79 -100.2 21.6 -96.58 17.19 C-91.35 14.2 -85.28 13.46 -79.4 12.62 C-70.77 11.58 -70.77 11.58 -63.46 7.25 C-55.25 1.36 -43.57 1.11 -33.77 0.63 C-32.48 0.57 -32.48 0.57 -31.16 0.51 C-20.78 0.05 -10.39 -0 0 0 Z " fill="#000000" transform="translate(954.584228515625,635.814697265625)"/>
<path d="M0 0 C1.51 -0 3.01 -0.01 4.52 -0.01 C7.65 -0.02 10.79 -0.02 13.93 -0.02 C17.11 -0.02 20.28 -0.02 23.46 -0.04 C72.83 -0.25 72.83 -0.25 83.09 6.17 C83.61 6.83 84.13 7.49 84.67 8.18 C88.52 11.35 92.98 11.48 97.84 12.17 C114.43 14.56 114.43 14.56 120.09 21.17 C120.09 21.83 120.09 22.49 120.09 23.17 C120.88 23.35 121.68 23.53 122.5 23.72 C130.09 25.52 135.96 27.12 141.71 32.54 C145.02 35.58 148.08 37.14 152.27 38.73 C157.55 40.75 160.01 42.46 163.09 47.17 C165.14 50.25 165.82 50.74 169.02 52.17 C171.94 53.48 174.01 54.71 176.09 57.17 C176.31 57.97 176.54 58.78 176.77 59.61 C178.55 63.07 180.73 63.65 184.18 65.21 C186.65 66.45 187.77 67.75 189.09 70.17 C189.31 70.97 189.54 71.78 189.77 72.61 C191.27 75.52 192.1 75.9 194.9 77.42 C199.78 80.2 201.99 84.05 204.09 89.17 C204.09 89.83 204.09 90.49 204.09 91.17 C204.83 91.39 205.57 91.62 206.34 91.86 C210.57 93.88 212.4 96.28 214 100.7 C215.99 107.48 217.51 113.5 214.46 120.17 C212.24 124.23 209.52 128.03 206.09 131.17 C205.43 131.17 204.77 131.17 204.09 131.17 C203.84 131.79 203.59 132.41 203.34 133.04 C201.85 135.57 200.65 135.89 198.09 137.17 C196.99 139.1 196.99 139.1 196.09 141.17 C194.59 142.92 194.59 142.92 193.09 144.17 C192.43 144.17 191.77 144.17 191.09 144.17 C190.84 144.79 190.59 145.41 190.34 146.04 C188.85 148.57 187.65 148.89 185.09 150.17 C183.99 152.1 183.99 152.1 183.09 154.17 C181.59 155.92 181.59 155.92 180.09 157.17 C179.43 157.17 178.77 157.17 178.09 157.17 C177.84 157.79 177.59 158.41 177.34 159.04 C175.85 161.57 174.65 161.89 172.09 163.17 C171.76 163.83 171.43 164.49 171.09 165.17 C169.82 167.7 168.56 167.93 166.09 169.17 C164.99 171.1 164.99 171.1 164.09 173.17 C162.59 174.92 162.59 174.92 161.09 176.17 C160.43 176.17 159.77 176.17 159.09 176.17 C158.84 176.79 158.59 177.41 158.34 178.04 C156.85 180.57 155.65 180.89 153.09 182.17 C151.99 184.1 151.99 184.1 151.09 186.17 C149.59 187.92 149.59 187.92 148.09 189.17 C147.43 189.17 146.77 189.17 146.09 189.17 C145.84 189.79 145.59 190.41 145.34 191.04 C143.85 193.57 142.65 193.89 140.09 195.17 C139.81 195.75 139.53 196.33 139.24 196.93 C137.77 199.78 135.85 201.66 133.59 203.92 C132.39 205.12 132.39 205.12 131.18 206.34 C129.09 208.17 129.09 208.17 127.09 208.17 C126.84 208.79 126.59 209.41 126.34 210.04 C124.85 212.57 123.65 212.89 121.09 214.17 C119.99 216.1 119.99 216.1 119.09 218.17 C117.59 219.92 117.59 219.92 116.09 221.17 C115.43 221.17 114.77 221.17 114.09 221.17 C113.84 221.79 113.59 222.41 113.34 223.04 C111.85 225.57 110.65 225.89 108.09 227.17 C107.76 227.83 107.43 228.49 107.09 229.17 C105.82 231.7 104.56 231.93 102.09 233.17 C100.99 235.1 100.99 235.1 100.09 237.17 C98.59 238.92 98.59 238.92 97.09 240.17 C96.43 240.17 95.77 240.17 95.09 240.17 C94.84 240.79 94.59 241.41 94.34 242.04 C92.85 244.57 91.65 244.89 89.09 246.17 C87.99 248.1 87.99 248.1 87.09 250.17 C85.59 251.92 85.59 251.92 84.09 253.17 C83.43 253.17 82.77 253.17 82.09 253.17 C81.84 253.79 81.59 254.41 81.34 255.04 C79.85 257.57 78.65 257.89 76.09 259.17 C75.81 259.75 75.53 260.33 75.24 260.93 C73.77 263.78 71.85 265.66 69.59 267.92 C68.79 268.72 68 269.52 67.18 270.34 C65.09 272.17 65.09 272.17 63.09 272.17 C62.84 272.79 62.59 273.41 62.34 274.04 C60.85 276.57 59.65 276.89 57.09 278.17 C55.99 280.1 55.99 280.1 55.09 282.17 C53.59 283.92 53.59 283.92 52.09 285.17 C51.43 285.17 50.77 285.17 50.09 285.17 C49.84 285.79 49.59 286.41 49.34 287.04 C47.85 289.57 46.65 289.89 44.09 291.17 C43.76 291.83 43.43 292.49 43.09 293.17 C41.82 295.7 40.56 295.93 38.09 297.17 C36.99 299.1 36.99 299.1 36.09 301.17 C34.59 302.92 34.59 302.92 33.09 304.17 C32.43 304.17 31.77 304.17 31.09 304.17 C30.84 304.79 30.59 305.41 30.34 306.04 C28.85 308.57 27.65 308.89 25.09 310.17 C23.99 312.1 23.99 312.1 23.09 314.17 C21.59 315.92 21.59 315.92 20.09 317.17 C19.43 317.17 18.77 317.17 18.09 317.17 C17.84 317.79 17.59 318.41 17.34 319.04 C15.85 321.57 14.65 321.89 12.09 323.17 C11.81 323.75 11.53 324.33 11.24 324.93 C9.77 327.78 7.85 329.66 5.59 331.92 C4.79 332.72 4 333.52 3.18 334.34 C1.09 336.17 1.09 336.17 -0.91 336.17 C-1.16 336.79 -1.41 337.41 -1.66 338.04 C-3.15 340.57 -4.35 340.89 -6.91 342.17 C-8.01 344.1 -8.01 344.1 -8.91 346.17 C-10.41 347.92 -10.41 347.92 -11.91 349.17 C-12.57 349.17 -13.23 349.17 -13.91 349.17 C-14.16 349.79 -14.41 350.41 -14.66 351.04 C-16.15 353.57 -17.35 353.89 -19.91 355.17 C-20.24 355.83 -20.57 356.49 -20.91 357.17 C-22.18 359.7 -23.44 359.93 -25.91 361.17 C-27.01 363.1 -27.01 363.1 -27.91 365.17 C-29.41 366.92 -29.41 366.92 -30.91 368.17 C-31.57 368.17 -32.23 368.17 -32.91 368.17 C-33.16 368.79 -33.41 369.41 -33.66 370.04 C-35.15 372.57 -36.35 372.89 -38.91 374.17 C-40.01 376.1 -40.01 376.1 -40.91 378.17 C-42.41 379.92 -42.41 379.92 -43.91 381.17 C-44.57 381.17 -45.23 381.17 -45.91 381.17 C-46.16 381.79 -46.41 382.41 -46.66 383.04 C-48.15 385.57 -49.35 385.89 -51.91 387.17 C-52.24 387.83 -52.57 388.49 -52.91 389.17 C-54.18 391.7 -55.44 391.93 -57.91 393.17 C-59.01 395.1 -59.01 395.1 -59.91 397.17 C-61.41 398.92 -61.41 398.92 -62.91 400.17 C-63.57 400.17 -64.23 400.17 -64.91 400.17 C-65.16 400.79 -65.41 401.41 -65.66 402.04 C-67.15 404.57 -68.35 404.89 -70.91 406.17 C-72.01 408.1 -72.01 408.1 -72.91 410.17 C-74.41 411.92 -74.41 411.92 -75.91 413.17 C-76.57 413.17 -77.23 413.17 -77.91 413.17 C-78.16 413.79 -78.41 414.41 -78.66 415.04 C-80.15 417.57 -81.35 417.89 -83.91 419.17 C-84.21 419.78 -84.5 420.4 -84.8 421.04 C-87.14 425.51 -92.13 428.21 -96.48 430.54 C-104.32 432.56 -111.57 430.16 -118.91 427.17 C-121.74 425.27 -123.4 422.98 -125.23 420.11 C-127.06 418 -128.26 417.5 -130.79 416.42 C-135.06 414.46 -136.37 412.08 -138.57 408.05 C-140.55 405.28 -142.98 404.47 -146.05 403.16 C-149.99 401.06 -151.56 397.23 -152.91 393.17 C-154.31 392.49 -154.31 392.49 -155.73 391.79 C-160.23 389.5 -162.22 386.76 -164.23 382.17 C-165.91 379.17 -166.53 378.61 -169.29 376.92 C-174.05 373.81 -175.73 369.25 -177.91 364.17 C-179.64 360.25 -181.41 357.59 -184.35 354.54 C-188.14 350.41 -189.34 346.3 -190.88 341 C-192.14 337.56 -193.82 335.45 -196.45 332.96 C-201.54 326.73 -202.07 318.49 -203.2 310.82 C-204.21 304.78 -205.75 301.81 -209.91 297.17 C-212.3 291.68 -213.52 286.69 -214.08 280.75 C-214.16 279.97 -214.24 279.19 -214.33 278.39 C-215.1 270.21 -215.21 262.06 -215.18 253.86 C-215.18 252.27 -215.18 250.67 -215.19 249.08 C-215.19 245.78 -215.18 242.48 -215.17 239.18 C-215.16 235.01 -215.17 230.83 -215.18 226.66 C-215.19 223.38 -215.19 220.11 -215.18 216.84 C-215.18 215.3 -215.18 213.76 -215.19 212.23 C-215.21 203.97 -214.93 195.8 -214.08 187.59 C-214.02 186.86 -213.95 186.14 -213.88 185.39 C-213.14 178.92 -211.55 172 -206.91 167.17 C-206.25 167.17 -205.59 167.17 -204.91 167.17 C-204.81 166.51 -204.71 165.86 -204.61 165.18 C-204.14 162.18 -203.65 159.17 -203.16 156.17 C-203.01 155.14 -202.85 154.11 -202.69 153.05 C-201.44 145.5 -199.81 139.29 -194.48 133.54 C-191.7 130.47 -190.71 127.06 -189.41 123.17 C-187.36 117.03 -185.45 113.14 -180.47 108.95 C-178.23 106.38 -177.05 103.37 -175.66 100.29 C-172.08 92.68 -172.08 92.68 -168.23 90.29 C-164.44 87.87 -163.5 86.07 -161.84 82.04 C-160.8 79.93 -159.7 78.67 -157.91 77.17 C-157.11 76.94 -156.31 76.71 -155.48 76.48 C-152.01 74.71 -151.43 72.52 -149.88 69.07 C-148.63 66.6 -147.33 65.49 -144.91 64.17 C-144.07 63.9 -143.22 63.63 -142.35 63.36 C-138.98 61.71 -138.51 59.5 -136.91 56.17 C-133.47 52.91 -128.84 49.17 -123.91 49.17 C-123.87 48.61 -123.83 48.05 -123.79 47.48 C-121.68 41.92 -116.09 39.69 -111.04 37.29 C-107.09 35.41 -104.08 33.63 -100.98 30.54 C-96.15 25.94 -88.61 23.17 -81.91 23.17 C-81.71 22.59 -81.5 22.01 -81.29 21.42 C-78.88 17.47 -75.7 15.64 -71.32 14.47 C-67.21 13.66 -63.08 12.95 -58.94 12.28 C-52.52 11.1 -48.11 9.39 -42.85 5.53 C-31.78 -2.25 -12.88 0.01 0 0 Z " fill="#000000" transform="translate(492.9140625,277.83203125)"/>
<path d="M0 0 C1.13 -0.02 1.13 -0.02 2.29 -0.04 C10.25 0.03 16.52 2.3 22.4 7.7 C30 15.99 29.43 25.72 29.08 36.27 C28.45 45.71 23.37 50.95 16.94 57.38 C15.66 58.83 14.39 60.29 13.12 61.75 C9.89 65.43 6.47 68.61 2.74 71.76 C0.71 73.5 0.71 73.5 -1.56 76.38 C-4.21 79.55 -7.08 82.05 -10.22 84.72 C-12.2 86.41 -12.2 86.41 -14.06 88.88 C-16.42 91.82 -19.1 94.09 -21.96 96.53 C-24.67 98.91 -27.14 101.47 -29.62 104.09 C-31.06 105.38 -31.06 105.38 -33.06 105.38 C-33.33 105.97 -33.6 106.57 -33.88 107.19 C-35.06 109.37 -36.16 110.79 -38.06 112.38 C-38.72 112.38 -39.38 112.38 -40.06 112.38 C-40.3 112.94 -40.54 113.5 -40.78 114.08 C-42.35 116.89 -44.28 118.85 -46.56 121.12 C-47.36 121.92 -48.15 122.72 -48.97 123.55 C-51.06 125.38 -51.06 125.38 -53.06 125.38 C-53.37 126.17 -53.37 126.17 -53.69 126.98 C-55.64 130.37 -58.34 132.94 -61.09 135.67 C-61.69 136.27 -62.28 136.86 -62.89 137.47 C-64.14 138.72 -65.39 139.97 -66.64 141.21 C-68.56 143.13 -70.48 145.05 -72.39 146.97 C-73.6 148.19 -74.82 149.4 -76.03 150.61 C-76.61 151.19 -77.18 151.77 -77.77 152.36 C-81.83 156.38 -81.83 156.38 -84.06 156.38 C-84.33 156.96 -84.59 157.54 -84.87 158.14 C-88.23 164.43 -93.85 169.17 -99.23 173.73 C-101.28 175.49 -101.28 175.49 -103.56 178.38 C-106.19 181.53 -109.04 184 -112.16 186.66 C-114.27 188.48 -114.27 188.48 -116.56 191.38 C-118.54 193.74 -120.28 195.49 -122.6 197.44 C-128.58 202.61 -134.01 208.31 -139.52 213.96 C-140.75 215.2 -140.75 215.2 -141.99 216.46 C-142.73 217.22 -143.46 217.97 -144.22 218.74 C-146.06 220.38 -146.06 220.38 -148.06 220.38 C-148.3 220.94 -148.54 221.5 -148.78 222.08 C-150.35 224.89 -152.28 226.85 -154.56 229.12 C-155.75 230.32 -155.75 230.32 -156.97 231.55 C-159.06 233.38 -159.06 233.38 -161.06 233.38 C-161.33 233.97 -161.6 234.57 -161.88 235.19 C-163.06 237.37 -164.16 238.79 -166.06 240.38 C-166.72 240.38 -167.38 240.38 -168.06 240.38 C-168.28 240.92 -168.5 241.47 -168.73 242.04 C-170.48 245.11 -172.85 247.38 -175.38 249.81 C-176.09 250.51 -176.09 250.51 -176.81 251.22 C-178.23 252.61 -179.64 253.99 -181.06 255.38 C-184.14 258.44 -187.19 261.51 -190.24 264.6 C-192.35 266.74 -194.47 268.87 -196.58 271.01 C-197.7 272.13 -198.82 273.26 -199.93 274.4 C-201.55 276.04 -203.17 277.67 -204.79 279.3 C-205.29 279.81 -205.79 280.32 -206.3 280.84 C-207.52 282.06 -208.79 283.22 -210.06 284.38 C-210.72 284.38 -211.38 284.38 -212.06 284.38 C-212.3 284.94 -212.54 285.5 -212.78 286.08 C-214.35 288.89 -216.28 290.85 -218.56 293.12 C-219.36 293.92 -220.15 294.72 -220.97 295.55 C-223.06 297.38 -223.06 297.38 -225.06 297.38 C-225.33 297.96 -225.59 298.54 -225.87 299.14 C-229.61 306.15 -237.44 314.83 -245.06 317.38 C-245.33 317.93 -245.6 318.48 -245.87 319.04 C-247.63 322.5 -250.37 324.97 -253.09 327.67 C-253.98 328.56 -253.98 328.56 -254.89 329.47 C-256.14 330.72 -257.39 331.97 -258.64 333.21 C-260.56 335.13 -262.48 337.05 -264.39 338.97 C-265.6 340.19 -266.82 341.4 -268.03 342.61 C-268.61 343.19 -269.18 343.77 -269.77 344.36 C-273.83 348.38 -273.83 348.38 -276.06 348.38 C-276.3 348.94 -276.54 349.5 -276.78 350.08 C-278.35 352.89 -280.28 354.85 -282.56 357.12 C-283.36 357.92 -284.15 358.72 -284.97 359.55 C-287.06 361.38 -287.06 361.38 -289.06 361.38 C-289.33 361.97 -289.6 362.57 -289.88 363.19 C-291.06 365.37 -292.16 366.79 -294.06 368.38 C-294.72 368.38 -295.38 368.38 -296.06 368.38 C-296.28 368.92 -296.5 369.47 -296.73 370.04 C-298.48 373.11 -300.85 375.38 -303.38 377.81 C-303.85 378.28 -304.32 378.74 -304.81 379.22 C-306.23 380.61 -307.64 381.99 -309.06 383.38 C-310.73 385.04 -312.4 386.71 -314.06 388.38 C-334.06 408.37 -334.06 408.37 -336.67 410.97 C-338.49 412.8 -340.3 414.64 -342.11 416.49 C-343.15 417.55 -344.2 418.62 -345.25 419.69 C-345.78 420.24 -346.32 420.79 -346.87 421.35 C-348.23 422.73 -349.64 424.06 -351.06 425.38 C-351.72 425.38 -352.38 425.38 -353.06 425.38 C-353.33 425.97 -353.6 426.57 -353.88 427.19 C-355.06 429.37 -356.16 430.79 -358.06 432.38 C-358.72 432.38 -359.38 432.38 -360.06 432.38 C-360.28 432.92 -360.5 433.47 -360.73 434.04 C-362.48 437.11 -364.85 439.38 -367.38 441.81 C-367.85 442.28 -368.32 442.74 -368.81 443.22 C-370.23 444.61 -371.64 445.99 -373.06 447.38 C-374.73 449.04 -376.4 450.71 -378.06 452.38 C-398.06 472.38 -398.06 472.38 -400.67 474.97 C-402.49 476.8 -404.3 478.64 -406.11 480.49 C-407.15 481.55 -408.2 482.62 -409.25 483.69 C-409.78 484.24 -410.32 484.79 -410.87 485.35 C-412.23 486.73 -413.64 488.06 -415.06 489.38 C-415.72 489.38 -416.38 489.38 -417.06 489.38 C-417.33 489.96 -417.59 490.54 -417.87 491.14 C-421.61 498.15 -429.44 506.83 -437.06 509.38 C-437.73 510.71 -438.4 512.04 -439.06 513.38 C-440.69 515.17 -442.39 516.91 -444.11 518.62 C-444.86 519.36 -444.86 519.36 -445.62 520.12 C-447.2 521.69 -448.79 523.25 -450.38 524.81 C-451.43 525.86 -452.49 526.91 -453.54 527.96 C-455.5 529.89 -457.46 531.83 -459.42 533.76 C-463.01 537.31 -466.58 540.87 -470.11 544.49 C-471.15 545.55 -472.2 546.62 -473.25 547.69 C-473.78 548.24 -474.32 548.79 -474.87 549.35 C-476.23 550.73 -477.64 552.06 -479.06 553.38 C-479.72 553.38 -480.38 553.38 -481.06 553.38 C-481.33 553.96 -481.59 554.54 -481.87 555.14 C-485.61 562.15 -493.44 570.83 -501.06 573.38 C-501.46 574.2 -501.46 574.2 -501.87 575.04 C-503.63 578.5 -506.37 580.97 -509.09 583.67 C-509.98 584.56 -509.98 584.56 -510.89 585.47 C-512.14 586.72 -513.39 587.97 -514.64 589.21 C-516.56 591.13 -518.48 593.05 -520.39 594.97 C-521.6 596.19 -522.82 597.4 -524.03 598.61 C-524.61 599.19 -525.18 599.77 -525.77 600.36 C-529.83 604.38 -529.83 604.38 -532.06 604.38 C-532.3 604.94 -532.54 605.5 -532.78 606.08 C-534.35 608.89 -536.28 610.85 -538.56 613.12 C-539.36 613.92 -540.15 614.72 -540.97 615.55 C-543.06 617.38 -543.06 617.38 -545.06 617.38 C-545.33 617.97 -545.6 618.57 -545.88 619.19 C-547.06 621.37 -548.16 622.79 -550.06 624.38 C-550.72 624.38 -551.38 624.38 -552.06 624.38 C-552.3 624.94 -552.54 625.5 -552.78 626.08 C-554.35 628.89 -556.28 630.85 -558.56 633.12 C-559.36 633.92 -560.15 634.72 -560.97 635.55 C-563.06 637.38 -563.06 637.38 -565.06 637.38 C-565.27 637.91 -565.47 638.44 -565.69 638.98 C-567.64 642.37 -570.34 644.94 -573.09 647.67 C-573.98 648.56 -573.98 648.56 -574.89 649.47 C-576.14 650.72 -577.39 651.97 -578.64 653.21 C-580.56 655.13 -582.48 657.05 -584.39 658.97 C-585.6 660.19 -586.82 661.4 -588.03 662.61 C-588.61 663.19 -589.18 663.77 -589.77 664.36 C-593.83 668.38 -593.83 668.38 -596.06 668.38 C-596.3 668.94 -596.54 669.5 -596.78 670.08 C-598.35 672.89 -600.28 674.85 -602.56 677.12 C-603.36 677.92 -604.15 678.72 -604.97 679.55 C-607.06 681.38 -607.06 681.38 -609.06 681.38 C-609.46 682.27 -609.46 682.27 -609.88 683.19 C-611.06 685.37 -612.16 686.79 -614.06 688.38 C-614.72 688.38 -615.38 688.38 -616.06 688.38 C-616.3 688.94 -616.54 689.5 -616.78 690.08 C-618.35 692.89 -620.28 694.85 -622.56 697.12 C-623.36 697.92 -624.15 698.72 -624.97 699.55 C-627.06 701.38 -627.06 701.38 -629.06 701.38 C-629.27 701.91 -629.47 702.44 -629.69 702.98 C-631.64 706.37 -634.34 708.94 -637.09 711.67 C-637.98 712.56 -637.98 712.56 -638.89 713.47 C-640.14 714.72 -641.39 715.97 -642.64 717.21 C-644.56 719.13 -646.48 721.05 -648.39 722.97 C-649.6 724.19 -650.82 725.4 -652.03 726.61 C-652.61 727.19 -653.18 727.77 -653.77 728.36 C-657.83 732.38 -657.83 732.38 -660.06 732.38 C-660.3 732.94 -660.54 733.5 -660.78 734.08 C-662.35 736.89 -664.28 738.85 -666.56 741.12 C-667.36 741.92 -668.15 742.72 -668.97 743.55 C-671.06 745.38 -671.06 745.38 -673.06 745.38 C-673.46 746.27 -673.46 746.27 -673.88 747.19 C-675.06 749.37 -676.16 750.79 -678.06 752.38 C-678.72 752.38 -679.38 752.38 -680.06 752.38 C-680.3 752.94 -680.54 753.5 -680.78 754.08 C-682.35 756.89 -684.28 758.85 -686.56 761.12 C-687.36 761.92 -688.15 762.72 -688.97 763.55 C-691.06 765.38 -691.06 765.38 -693.06 765.38 C-693.4 766.2 -693.4 766.2 -693.75 767.05 C-695.46 770.08 -697.64 772.17 -700.11 774.62 C-700.86 775.36 -700.86 775.36 -701.62 776.12 C-703.2 777.69 -704.79 779.25 -706.38 780.81 C-707.43 781.86 -708.49 782.91 -709.54 783.96 C-711.5 785.89 -713.46 787.83 -715.42 789.76 C-719.01 793.31 -722.58 796.87 -726.11 800.49 C-727.15 801.55 -728.2 802.62 -729.25 803.69 C-730.05 804.51 -730.05 804.51 -730.87 805.35 C-732.23 806.73 -733.64 808.06 -735.06 809.38 C-735.72 809.38 -736.38 809.38 -737.06 809.38 C-737.46 810.25 -737.46 810.25 -737.87 811.14 C-741.61 818.15 -749.44 826.83 -757.06 829.38 C-757.33 829.93 -757.6 830.48 -757.87 831.04 C-759.63 834.5 -762.37 836.97 -765.09 839.67 C-765.98 840.56 -765.98 840.56 -766.89 841.47 C-768.14 842.72 -769.39 843.97 -770.64 845.21 C-772.56 847.13 -774.48 849.05 -776.39 850.97 C-777.6 852.19 -778.82 853.4 -780.03 854.61 C-780.61 855.19 -781.18 855.77 -781.77 856.36 C-785.83 860.38 -785.83 860.38 -788.06 860.38 C-788.3 860.94 -788.54 861.5 -788.78 862.08 C-790.35 864.89 -792.28 866.85 -794.56 869.12 C-795.36 869.92 -796.15 870.72 -796.97 871.55 C-799.06 873.38 -799.06 873.38 -801.06 873.38 C-801.46 874.27 -801.46 874.27 -801.88 875.19 C-803.06 877.37 -804.16 878.79 -806.06 880.38 C-806.72 880.38 -807.38 880.38 -808.06 880.38 C-808.3 880.94 -808.54 881.5 -808.78 882.08 C-810.35 884.89 -812.28 886.85 -814.56 889.12 C-815.36 889.92 -816.15 890.72 -816.97 891.55 C-819.06 893.38 -819.06 893.38 -821.06 893.38 C-821.29 893.93 -821.52 894.49 -821.76 895.07 C-823.41 897.99 -825.47 899.98 -827.88 902.31 C-828.73 903.15 -829.58 903.98 -830.46 904.84 C-831.32 905.68 -832.18 906.51 -833.06 907.38 C-834.73 909.04 -836.4 910.71 -838.06 912.38 C-846.06 920.37 -846.06 920.37 -848.43 922.73 C-850.33 924.64 -852.22 926.56 -854.11 928.49 C-855.15 929.55 -856.2 930.62 -857.25 931.69 C-858.05 932.51 -858.05 932.51 -858.87 933.35 C-860.23 934.73 -861.64 936.06 -863.06 937.38 C-863.72 937.38 -864.38 937.38 -865.06 937.38 C-865.33 937.96 -865.59 938.54 -865.87 939.14 C-869.61 946.15 -877.44 954.83 -885.06 957.38 C-885.74 958.71 -886.4 960.04 -887.06 961.38 C-888.62 963.07 -890.23 964.71 -891.88 966.31 C-892.73 967.15 -893.58 967.98 -894.46 968.84 C-895.32 969.68 -896.18 970.51 -897.06 971.38 C-899.76 974.06 -902.44 976.76 -905.11 979.49 C-906.15 980.55 -907.2 981.62 -908.25 982.69 C-909.05 983.51 -909.05 983.51 -909.87 984.35 C-911.23 985.73 -912.64 987.06 -914.06 988.38 C-914.72 988.38 -915.38 988.38 -916.06 988.38 C-916.3 988.94 -916.54 989.5 -916.78 990.08 C-918.35 992.89 -920.28 994.85 -922.56 997.12 C-923.36 997.92 -924.15 998.72 -924.97 999.55 C-927.06 1001.38 -927.06 1001.38 -929.06 1001.38 C-929.46 1002.27 -929.46 1002.27 -929.88 1003.19 C-931.06 1005.37 -932.16 1006.79 -934.06 1008.38 C-934.72 1008.38 -935.38 1008.38 -936.06 1008.38 C-936.3 1008.94 -936.54 1009.5 -936.78 1010.08 C-938.35 1012.89 -940.28 1014.85 -942.56 1017.12 C-943.36 1017.92 -944.15 1018.72 -944.97 1019.55 C-947.06 1021.38 -947.06 1021.38 -949.06 1021.38 C-949.29 1021.93 -949.52 1022.49 -949.76 1023.07 C-951.41 1025.99 -953.47 1027.98 -955.88 1030.31 C-956.73 1031.15 -957.58 1031.98 -958.46 1032.84 C-959.32 1033.68 -960.18 1034.51 -961.06 1035.38 C-963.76 1038.06 -966.44 1040.76 -969.11 1043.49 C-970.15 1044.55 -971.2 1045.62 -972.25 1046.69 C-973.05 1047.51 -973.05 1047.51 -973.87 1048.35 C-975.23 1049.73 -976.64 1051.06 -978.06 1052.38 C-978.72 1052.38 -979.38 1052.38 -980.06 1052.38 C-980.42 1053.22 -980.42 1053.22 -980.78 1054.08 C-982.35 1056.89 -984.28 1058.85 -986.56 1061.12 C-987.36 1061.92 -988.15 1062.72 -988.97 1063.55 C-991.06 1065.38 -991.06 1065.38 -993.06 1065.38 C-993.46 1066.27 -993.46 1066.27 -993.88 1067.19 C-995.06 1069.37 -996.16 1070.79 -998.06 1072.38 C-998.72 1072.38 -999.38 1072.38 -1000.06 1072.38 C-1000.42 1073.22 -1000.42 1073.22 -1000.78 1074.08 C-1002.35 1076.89 -1004.28 1078.85 -1006.56 1081.12 C-1007.36 1081.92 -1008.15 1082.72 -1008.97 1083.55 C-1011.06 1085.38 -1011.06 1085.38 -1013.06 1085.38 C-1013.27 1085.91 -1013.47 1086.44 -1013.69 1086.98 C-1015.64 1090.37 -1018.34 1092.94 -1021.09 1095.67 C-1021.98 1096.56 -1021.98 1096.56 -1022.89 1097.47 C-1024.14 1098.72 -1025.39 1099.97 -1026.64 1101.21 C-1028.56 1103.13 -1030.48 1105.05 -1032.39 1106.97 C-1033.6 1108.19 -1034.82 1109.4 -1036.03 1110.61 C-1036.61 1111.19 -1037.18 1111.77 -1037.77 1112.36 C-1041.83 1116.38 -1041.83 1116.38 -1044.06 1116.38 C-1044.28 1116.93 -1044.51 1117.49 -1044.73 1118.06 C-1046.48 1121.11 -1048.71 1123.08 -1051.31 1125.44 C-1052.25 1126.29 -1053.18 1127.15 -1054.14 1128.04 C-1063.2 1135.29 -1073.02 1134.93 -1084.06 1134.38 C-1092.09 1133.33 -1097.2 1128.64 -1102.06 1122.38 C-1106.89 1114.57 -1106.09 1102.51 -1104.63 1093.78 C-1102.88 1088.32 -1098.89 1084.46 -1095.06 1080.38 C-1093.47 1078.47 -1091.89 1076.55 -1090.32 1074.62 C-1089.06 1073.38 -1089.06 1073.38 -1087.06 1073.38 C-1086.86 1072.84 -1086.65 1072.31 -1086.44 1071.77 C-1084.49 1068.38 -1081.79 1065.81 -1079.03 1063.08 C-1078.14 1062.19 -1078.14 1062.19 -1077.24 1061.28 C-1075.99 1060.03 -1074.74 1058.78 -1073.49 1057.54 C-1071.56 1055.62 -1069.65 1053.7 -1067.74 1051.78 C-1066.52 1050.56 -1065.31 1049.35 -1064.09 1048.14 C-1063.52 1047.56 -1062.95 1046.98 -1062.35 1046.39 C-1058.29 1042.38 -1058.29 1042.38 -1056.06 1042.38 C-1055.66 1041.48 -1055.66 1041.48 -1055.25 1040.56 C-1054.06 1038.38 -1052.97 1036.96 -1051.06 1035.38 C-1050.4 1035.38 -1049.74 1035.38 -1049.06 1035.38 C-1048.82 1034.76 -1048.57 1034.14 -1048.31 1033.5 C-1046.83 1030.97 -1045.63 1030.66 -1043.06 1029.38 C-1041.97 1027.44 -1041.97 1027.44 -1041.06 1025.38 C-1039.56 1023.62 -1039.56 1023.62 -1038.06 1022.38 C-1037.4 1022.38 -1036.74 1022.38 -1036.06 1022.38 C-1035.71 1021.53 -1035.71 1021.53 -1035.34 1020.67 C-1033.77 1017.86 -1031.85 1015.9 -1029.56 1013.62 C-1028.77 1012.83 -1027.97 1012.03 -1027.16 1011.2 C-1025.06 1009.38 -1025.06 1009.38 -1023.06 1009.38 C-1022.75 1008.58 -1022.75 1008.58 -1022.44 1007.77 C-1020.49 1004.38 -1017.79 1001.81 -1015.03 999.08 C-1014.14 998.19 -1014.14 998.19 -1013.24 997.28 C-1011.99 996.03 -1010.74 994.78 -1009.49 993.54 C-1007.56 991.62 -1005.65 989.7 -1003.74 987.78 C-1002.52 986.56 -1001.31 985.35 -1000.09 984.14 C-999.52 983.56 -998.95 982.98 -998.35 982.39 C-994.29 978.38 -994.29 978.38 -992.06 978.38 C-991.66 977.48 -991.66 977.48 -991.25 976.56 C-990.06 974.38 -988.97 972.96 -987.06 971.38 C-986.4 971.38 -985.74 971.38 -985.06 971.38 C-984.69 970.45 -984.69 970.45 -984.31 969.5 C-982.83 966.97 -981.63 966.66 -979.06 965.38 C-977.97 963.44 -977.97 963.44 -977.06 961.38 C-975.56 959.62 -975.56 959.62 -974.06 958.38 C-973.4 958.38 -972.74 958.38 -972.06 958.38 C-971.83 957.81 -971.59 957.25 -971.34 956.67 C-969.77 953.86 -967.85 951.9 -965.56 949.62 C-964.77 948.83 -963.97 948.03 -963.16 947.2 C-961.06 945.38 -961.06 945.38 -959.06 945.38 C-958.72 944.54 -958.72 944.54 -958.38 943.69 C-957.06 941.38 -955.56 939.81 -953.67 937.96 C-951.73 936.05 -949.83 934.11 -947.93 932.17 C-946.41 930.63 -944.89 929.1 -943.38 927.56 C-942.6 926.77 -941.83 925.99 -941.04 925.17 C-940.3 924.43 -939.56 923.68 -938.8 922.92 C-938.13 922.24 -937.46 921.56 -936.77 920.86 C-935.06 919.38 -935.06 919.38 -933.06 919.38 C-932.66 918.42 -932.66 918.42 -932.25 917.44 C-931.06 915.38 -931.06 915.38 -928.06 914.38 C-927.36 913.06 -926.7 911.72 -926.06 910.38 C-924.56 908.63 -924.56 908.63 -923.06 907.38 C-922.4 907.38 -921.74 907.38 -921.06 907.38 C-920.69 906.45 -920.69 906.45 -920.31 905.5 C-918.83 902.97 -917.63 902.66 -915.06 901.38 C-913.97 899.44 -913.97 899.44 -913.06 897.38 C-911.56 895.62 -911.56 895.62 -910.06 894.38 C-909.4 894.38 -908.74 894.38 -908.06 894.38 C-907.83 893.81 -907.59 893.25 -907.34 892.67 C-905.77 889.86 -903.85 887.9 -901.56 885.62 C-900.77 884.83 -899.97 884.03 -899.16 883.2 C-897.06 881.38 -897.06 881.38 -895.06 881.38 C-894.86 880.84 -894.65 880.31 -894.44 879.77 C-892.49 876.38 -889.79 873.81 -887.03 871.08 C-886.44 870.48 -885.85 869.89 -885.24 869.28 C-883.99 868.03 -882.74 866.78 -881.49 865.54 C-879.56 863.62 -877.65 861.7 -875.74 859.78 C-874.52 858.56 -873.31 857.35 -872.09 856.14 C-871.52 855.56 -870.95 854.98 -870.35 854.39 C-866.29 850.38 -866.29 850.38 -864.06 850.38 C-863.83 849.81 -863.59 849.25 -863.34 848.67 C-861.77 845.86 -859.85 843.9 -857.56 841.62 C-856.77 840.83 -855.97 840.03 -855.16 839.2 C-853.06 837.38 -853.06 837.38 -851.06 837.38 C-850.66 836.48 -850.66 836.48 -850.25 835.56 C-849.06 833.38 -847.97 831.96 -846.06 830.38 C-845.4 830.38 -844.74 830.38 -844.06 830.38 C-843.83 829.81 -843.59 829.25 -843.34 828.67 C-841.77 825.86 -839.85 823.9 -837.56 821.62 C-836.77 820.83 -835.97 820.03 -835.16 819.2 C-833.06 817.38 -833.06 817.38 -831.06 817.38 C-830.72 816.54 -830.72 816.54 -830.38 815.69 C-829.06 813.38 -827.56 811.81 -825.67 809.96 C-823.73 808.05 -821.83 806.11 -819.93 804.17 C-818.41 802.63 -816.89 801.1 -815.38 799.56 C-814.6 798.77 -813.83 797.99 -813.04 797.17 C-812.3 796.43 -811.56 795.68 -810.8 794.92 C-810.13 794.24 -809.46 793.56 -808.77 792.86 C-807.06 791.38 -807.06 791.38 -805.06 791.38 C-804.66 790.42 -804.66 790.42 -804.25 789.44 C-803.06 787.38 -803.06 787.38 -800.06 786.38 C-799.38 785.05 -798.72 783.71 -798.06 782.38 C-796.61 780.74 -795.11 779.16 -793.56 777.62 C-792.77 776.83 -791.97 776.03 -791.16 775.2 C-789.06 773.38 -789.06 773.38 -787.06 773.38 C-786.66 772.48 -786.66 772.48 -786.25 771.56 C-785.06 769.38 -783.97 767.96 -782.06 766.38 C-781.4 766.38 -780.74 766.38 -780.06 766.38 C-779.83 765.81 -779.59 765.25 -779.34 764.67 C-777.77 761.86 -775.85 759.9 -773.56 757.62 C-772.77 756.83 -771.97 756.03 -771.16 755.2 C-769.06 753.38 -769.06 753.38 -767.06 753.38 C-766.86 752.84 -766.65 752.31 -766.44 751.77 C-764.49 748.38 -761.79 745.81 -759.03 743.08 C-758.14 742.19 -758.14 742.19 -757.24 741.28 C-755.99 740.03 -754.74 738.78 -753.49 737.54 C-751.56 735.62 -749.65 733.7 -747.74 731.78 C-746.52 730.56 -745.31 729.35 -744.09 728.14 C-743.52 727.56 -742.95 726.98 -742.35 726.39 C-738.29 722.38 -738.29 722.38 -736.06 722.38 C-735.83 721.81 -735.59 721.25 -735.34 720.67 C-733.77 717.86 -731.85 715.9 -729.56 713.62 C-728.77 712.83 -727.97 712.03 -727.16 711.2 C-725.06 709.38 -725.06 709.38 -723.06 709.38 C-722.66 708.48 -722.66 708.48 -722.25 707.56 C-721.06 705.38 -719.97 703.96 -718.06 702.38 C-717.4 702.38 -716.74 702.38 -716.06 702.38 C-715.83 701.81 -715.59 701.25 -715.34 700.67 C-713.77 697.86 -711.85 695.9 -709.56 693.62 C-708.77 692.83 -707.97 692.03 -707.16 691.2 C-705.06 689.38 -705.06 689.38 -703.06 689.38 C-702.86 688.84 -702.65 688.31 -702.44 687.77 C-700.49 684.38 -697.79 681.81 -695.03 679.08 C-694.14 678.19 -694.14 678.19 -693.24 677.28 C-691.99 676.03 -690.74 674.78 -689.49 673.54 C-687.56 671.62 -685.65 669.7 -683.74 667.78 C-682.52 666.56 -681.31 665.35 -680.09 664.14 C-679.52 663.56 -678.95 662.98 -678.35 662.39 C-674.29 658.38 -674.29 658.38 -672.06 658.38 C-671.83 657.81 -671.59 657.25 -671.34 656.67 C-669.77 653.86 -667.85 651.9 -665.56 649.62 C-664.77 648.83 -663.97 648.03 -663.16 647.2 C-661.06 645.38 -661.06 645.38 -659.06 645.38 C-658.66 644.48 -658.66 644.48 -658.25 643.56 C-657.06 641.38 -655.97 639.96 -654.06 638.38 C-653.4 638.38 -652.74 638.38 -652.06 638.38 C-651.83 637.81 -651.59 637.25 -651.34 636.67 C-649.77 633.86 -647.85 631.9 -645.56 629.62 C-644.77 628.83 -643.97 628.03 -643.16 627.2 C-641.06 625.38 -641.06 625.38 -639.06 625.38 C-638.86 624.84 -638.65 624.31 -638.44 623.77 C-636.49 620.38 -633.79 617.81 -631.03 615.08 C-630.14 614.19 -630.14 614.19 -629.24 613.28 C-627.99 612.03 -626.74 610.78 -625.49 609.54 C-623.56 607.62 -621.65 605.7 -619.74 603.78 C-618.52 602.56 -617.31 601.35 -616.09 600.14 C-615.52 599.56 -614.95 598.98 -614.35 598.39 C-610.29 594.38 -610.29 594.38 -608.06 594.38 C-607.83 593.81 -607.59 593.25 -607.34 592.67 C-605.77 589.86 -603.85 587.9 -601.56 585.62 C-600.77 584.83 -599.97 584.03 -599.16 583.2 C-597.06 581.38 -597.06 581.38 -595.06 581.38 C-594.66 580.48 -594.66 580.48 -594.25 579.56 C-593.06 577.38 -591.97 575.96 -590.06 574.38 C-589.4 574.38 -588.74 574.38 -588.06 574.38 C-587.83 573.81 -587.59 573.25 -587.34 572.67 C-585.77 569.86 -583.85 567.9 -581.56 565.62 C-580.77 564.83 -579.97 564.03 -579.16 563.2 C-577.06 561.38 -577.06 561.38 -575.06 561.38 C-574.84 560.82 -574.61 560.26 -574.38 559.69 C-573.06 557.38 -571.56 555.81 -569.67 553.96 C-567.73 552.05 -565.83 550.11 -563.93 548.17 C-562.41 546.63 -560.89 545.1 -559.38 543.56 C-558.6 542.77 -557.83 541.99 -557.04 541.17 C-556.3 540.43 -555.56 539.68 -554.8 538.92 C-554.13 538.24 -553.46 537.56 -552.77 536.86 C-551.06 535.38 -551.06 535.38 -549.06 535.38 C-548.79 534.74 -548.53 534.1 -548.25 533.44 C-547.06 531.38 -547.06 531.38 -544.06 530.38 C-543.38 529.05 -542.72 527.71 -542.06 526.38 C-540.61 524.74 -539.11 523.16 -537.56 521.62 C-536.77 520.83 -535.97 520.03 -535.16 519.2 C-533.06 517.38 -533.06 517.38 -531.06 517.38 C-530.79 516.78 -530.53 516.18 -530.25 515.56 C-529.06 513.38 -527.97 511.96 -526.06 510.38 C-525.4 510.38 -524.74 510.38 -524.06 510.38 C-523.83 509.81 -523.59 509.25 -523.34 508.67 C-521.77 505.86 -519.85 503.9 -517.56 501.62 C-516.77 500.83 -515.97 500.03 -515.16 499.2 C-513.06 497.38 -513.06 497.38 -511.06 497.38 C-510.84 496.82 -510.61 496.26 -510.38 495.69 C-509.06 493.38 -507.56 491.81 -505.67 489.96 C-503.73 488.05 -501.83 486.11 -499.93 484.17 C-498.41 482.63 -496.89 481.1 -495.38 479.56 C-494.22 478.38 -494.22 478.38 -493.04 477.17 C-492.3 476.43 -491.56 475.68 -490.8 474.92 C-490.13 474.24 -489.46 473.56 -488.77 472.86 C-487.06 471.38 -487.06 471.38 -485.06 471.38 C-484.79 470.74 -484.53 470.1 -484.25 469.44 C-483.06 467.38 -483.06 467.38 -480.06 466.38 C-479.38 465.05 -478.72 463.71 -478.06 462.38 C-476.61 460.74 -475.11 459.16 -473.56 457.62 C-472.77 456.83 -471.97 456.03 -471.16 455.2 C-469.06 453.38 -469.06 453.38 -467.06 453.38 C-466.79 452.78 -466.53 452.18 -466.25 451.56 C-465.06 449.38 -463.97 447.96 -462.06 446.38 C-461.4 446.38 -460.74 446.38 -460.06 446.38 C-459.82 445.76 -459.57 445.14 -459.31 444.5 C-457.83 441.97 -456.63 441.66 -454.06 440.38 C-452.97 438.44 -452.97 438.44 -452.06 436.38 C-450.56 434.62 -450.56 434.62 -449.06 433.38 C-448.4 433.38 -447.74 433.38 -447.06 433.38 C-446.72 432.55 -446.72 432.55 -446.37 431.7 C-444.68 428.7 -442.55 426.61 -440.12 424.17 C-439.64 423.69 -439.16 423.21 -438.67 422.71 C-437.66 421.7 -436.64 420.68 -435.62 419.67 C-434.06 418.12 -432.51 416.56 -430.96 415 C-429.97 414.01 -428.99 413.03 -428 412.05 C-427.1 411.15 -426.2 410.25 -425.28 409.33 C-423.06 407.38 -423.06 407.38 -421.06 407.38 C-420.79 406.74 -420.53 406.1 -420.25 405.44 C-419.06 403.38 -419.06 403.38 -416.06 402.38 C-415.38 401.05 -414.72 399.71 -414.06 398.38 C-412.61 396.74 -411.11 395.16 -409.56 393.62 C-408.77 392.83 -407.97 392.03 -407.16 391.2 C-405.06 389.38 -405.06 389.38 -403.06 389.38 C-402.79 388.78 -402.53 388.18 -402.25 387.56 C-401.06 385.38 -399.97 383.96 -398.06 382.38 C-397.4 382.38 -396.74 382.38 -396.06 382.38 C-395.82 381.76 -395.57 381.14 -395.31 380.5 C-393.83 377.97 -392.63 377.66 -390.06 376.38 C-388.97 374.44 -388.97 374.44 -388.06 372.38 C-386.56 370.62 -386.56 370.62 -385.06 369.38 C-384.4 369.38 -383.74 369.38 -383.06 369.38 C-382.86 368.84 -382.65 368.31 -382.44 367.77 C-380.49 364.38 -377.79 361.81 -375.03 359.08 C-374.14 358.19 -374.14 358.19 -373.24 357.28 C-371.99 356.03 -370.74 354.78 -369.49 353.54 C-367.56 351.62 -365.65 349.7 -363.74 347.78 C-362.52 346.56 -361.31 345.35 -360.09 344.14 C-359.52 343.56 -358.95 342.98 -358.35 342.39 C-354.29 338.38 -354.29 338.38 -352.06 338.38 C-351.83 337.81 -351.59 337.25 -351.34 336.67 C-349.77 333.86 -347.85 331.9 -345.56 329.62 C-344.77 328.83 -343.97 328.03 -343.16 327.2 C-341.06 325.38 -341.06 325.38 -339.06 325.38 C-338.79 324.78 -338.53 324.18 -338.25 323.56 C-337.06 321.38 -335.97 319.96 -334.06 318.38 C-333.4 318.38 -332.74 318.38 -332.06 318.38 C-331.83 317.81 -331.59 317.25 -331.34 316.67 C-329.77 313.86 -327.85 311.9 -325.56 309.62 C-324.77 308.83 -323.97 308.03 -323.16 307.2 C-321.06 305.38 -321.06 305.38 -319.06 305.38 C-318.84 304.82 -318.61 304.26 -318.38 303.69 C-316.69 300.72 -314.5 298.76 -312.06 296.38 C-310.32 294.61 -308.57 292.84 -306.83 291.07 C-305.35 289.58 -303.88 288.09 -302.4 286.6 C-301.37 285.57 -300.36 284.53 -299.34 283.5 C-297.86 282 -296.38 280.5 -294.89 279.01 C-294.02 278.12 -293.14 277.23 -292.23 276.32 C-290.06 274.38 -290.06 274.38 -288.06 274.38 C-287.83 273.81 -287.59 273.25 -287.34 272.67 C-285.77 269.86 -283.85 267.9 -281.56 265.62 C-280.77 264.83 -279.97 264.03 -279.16 263.2 C-277.06 261.38 -277.06 261.38 -275.06 261.38 C-274.79 260.78 -274.53 260.18 -274.25 259.56 C-273.06 257.38 -271.97 255.96 -270.06 254.38 C-269.4 254.38 -268.74 254.38 -268.06 254.38 C-267.82 253.76 -267.57 253.14 -267.31 252.5 C-265.83 249.97 -264.63 249.66 -262.06 248.38 C-260.97 246.44 -260.97 246.44 -260.06 244.38 C-258.56 242.62 -258.56 242.62 -257.06 241.38 C-256.4 241.38 -255.74 241.38 -255.06 241.38 C-254.86 240.84 -254.65 240.31 -254.44 239.77 C-252.49 236.38 -249.79 233.81 -247.03 231.08 C-246.44 230.48 -245.85 229.89 -245.24 229.28 C-243.99 228.03 -242.74 226.78 -241.49 225.54 C-239.56 223.62 -237.65 221.7 -235.74 219.78 C-234.52 218.56 -233.31 217.35 -232.09 216.14 C-231.52 215.56 -230.95 214.98 -230.35 214.39 C-226.29 210.38 -226.29 210.38 -224.06 210.38 C-223.83 209.81 -223.59 209.25 -223.34 208.67 C-221.77 205.86 -219.85 203.9 -217.56 201.62 C-216.37 200.43 -216.37 200.43 -215.16 199.2 C-213.06 197.38 -213.06 197.38 -211.06 197.38 C-210.79 196.78 -210.53 196.18 -210.25 195.56 C-209.06 193.38 -207.97 191.96 -206.06 190.38 C-205.4 190.38 -204.74 190.38 -204.06 190.38 C-203.82 189.76 -203.57 189.14 -203.31 188.5 C-201.83 185.97 -200.63 185.66 -198.06 184.38 C-196.97 182.44 -196.97 182.44 -196.06 180.38 C-194.56 178.63 -194.56 178.63 -193.06 177.38 C-192.4 177.38 -191.74 177.38 -191.06 177.38 C-190.84 176.82 -190.61 176.26 -190.38 175.69 C-188.69 172.72 -186.53 170.72 -184.06 168.38 C-183.34 167.61 -182.62 166.85 -181.88 166.06 C-180.06 164.38 -180.06 164.38 -178.06 164.38 C-177.79 163.74 -177.53 163.1 -177.25 162.44 C-176.06 160.38 -176.06 160.38 -173.06 159.38 C-172.38 158.05 -171.72 156.71 -171.06 155.38 C-169.61 153.74 -168.11 152.16 -166.56 150.62 C-165.37 149.43 -165.37 149.43 -164.16 148.2 C-162.06 146.38 -162.06 146.38 -160.06 146.38 C-159.83 145.81 -159.59 145.25 -159.34 144.67 C-157.77 141.86 -155.85 139.9 -153.56 137.62 C-152.37 136.43 -152.37 136.43 -151.16 135.2 C-149.06 133.38 -149.06 133.38 -147.06 133.38 C-146.79 132.78 -146.53 132.18 -146.25 131.56 C-145.06 129.38 -143.97 127.96 -142.06 126.38 C-141.4 126.38 -140.74 126.38 -140.06 126.38 C-139.71 125.53 -139.71 125.53 -139.34 124.67 C-137.77 121.86 -135.85 119.9 -133.56 117.62 C-132.77 116.83 -131.97 116.03 -131.16 115.2 C-129.06 113.38 -129.06 113.38 -127.06 113.38 C-126.72 112.55 -126.72 112.55 -126.37 111.7 C-124.68 108.7 -122.55 106.61 -120.12 104.17 C-119.64 103.69 -119.16 103.21 -118.67 102.71 C-117.66 101.7 -116.64 100.68 -115.62 99.67 C-114.06 98.12 -112.51 96.56 -110.96 95 C-109.97 94.01 -108.99 93.03 -108 92.05 C-107.1 91.15 -106.2 90.25 -105.28 89.33 C-103.06 87.38 -103.06 87.38 -101.06 87.38 C-100.79 86.74 -100.53 86.1 -100.25 85.44 C-99.06 83.38 -99.06 83.38 -96.06 82.38 C-95.36 81.06 -94.7 79.72 -94.06 78.38 C-92.56 76.63 -92.56 76.63 -91.06 75.38 C-90.4 75.38 -89.74 75.38 -89.06 75.38 C-88.82 74.76 -88.57 74.14 -88.31 73.5 C-86.83 70.97 -85.63 70.66 -83.06 69.38 C-81.97 67.44 -81.97 67.44 -81.06 65.38 C-79.56 63.62 -79.56 63.62 -78.06 62.38 C-77.4 62.38 -76.74 62.38 -76.06 62.38 C-75.82 61.76 -75.57 61.14 -75.31 60.5 C-73.83 57.97 -72.63 57.66 -70.06 56.38 C-68.97 54.44 -68.97 54.44 -68.06 52.38 C-66.56 50.63 -66.56 50.63 -65.06 49.38 C-64.4 49.38 -63.74 49.38 -63.06 49.38 C-62.75 48.58 -62.75 48.58 -62.44 47.77 C-60.49 44.38 -57.79 41.81 -55.03 39.08 C-54.44 38.48 -53.85 37.89 -53.24 37.28 C-51.99 36.03 -50.74 34.78 -49.49 33.54 C-47.56 31.62 -45.65 29.7 -43.74 27.78 C-42.52 26.56 -41.31 25.35 -40.09 24.14 C-39.23 23.27 -39.23 23.27 -38.35 22.39 C-34.29 18.38 -34.29 18.38 -32.06 18.38 C-31.85 17.83 -31.63 17.28 -31.41 16.72 C-27.94 10.67 -20.47 3.86 -13.94 1.19 C-9.39 0.08 -4.66 0.08 0 0 Z " fill="#000000" transform="translate(1178.0625,72.625)"/>
<path d="M0 0 C0.88 -0.02 1.75 -0.04 2.66 -0.06 C10.95 -0.11 16.42 2.03 22.61 7.64 C32.98 18.26 30.33 36.41 30.19 50.25 C31.43 50.27 31.43 50.27 32.71 50.29 C35.83 50.36 38.96 50.43 42.08 50.51 C44.08 50.56 46.09 50.6 48.09 50.63 C58.32 50.91 66.3 51.41 73.62 59.12 C74.45 59.97 75.27 60.81 76.12 61.68 C80.74 67.42 80.55 73 80.56 80.06 C80.59 81.02 80.61 81.98 80.64 82.97 C80.67 90.49 79.07 95.53 74.48 101.46 C67.54 108.15 61.35 110.25 51.79 110.57 C50.59 110.61 49.39 110.65 48.15 110.69 C46.9 110.73 45.66 110.77 44.38 110.81 C43.11 110.86 41.84 110.9 40.54 110.94 C37.42 111.05 34.31 111.15 31.19 111.25 C31.14 112.12 31.1 112.98 31.05 113.88 C30.88 117.13 30.69 120.38 30.5 123.63 C30.42 125.03 30.34 126.43 30.27 127.83 C29.65 139.69 28.68 147.92 19.62 156.33 C11.67 162.61 1.84 161.93 -7.81 161.25 C-14.9 160.3 -18.92 156.8 -23.87 151.8 C-27.97 146.42 -29.18 141.46 -29.54 134.79 C-29.58 134.11 -29.62 133.43 -29.66 132.73 C-29.79 130.59 -29.89 128.45 -30 126.31 C-30.08 124.85 -30.16 123.39 -30.25 121.93 C-30.45 118.37 -30.64 114.81 -30.81 111.25 C-31.58 111.24 -32.35 111.22 -33.15 111.21 C-36.68 111.13 -40.22 111.03 -43.75 110.94 C-44.96 110.91 -46.17 110.89 -47.42 110.87 C-57.82 110.56 -65.39 109.34 -73.09 102.09 C-79.43 95.33 -80.02 89.39 -80.06 80.44 C-80.08 79.45 -80.1 78.47 -80.12 77.45 C-80.17 69.3 -78.46 64.49 -72.69 58.56 C-71.63 57.44 -71.63 57.44 -70.55 56.3 C-62.59 50.35 -53.34 50.73 -43.75 50.56 C-42.39 50.53 -41.04 50.49 -39.68 50.46 C-36.39 50.38 -33.1 50.31 -29.81 50.25 C-29.83 48.77 -29.83 48.77 -29.84 47.26 C-29.9 40.41 -29.84 33.59 -29.5 26.75 C-29.41 24.85 -29.41 24.85 -29.32 22.91 C-28.21 14.97 -24.39 9.7 -18.81 4.25 C-12.82 -0.07 -7.14 0.04 0 0 Z " fill="#000000" transform="translate(1151.8125,405.75)"/>
<path d="M0 0 C1.02 -0.01 2.03 -0.02 3.08 -0.04 C11.38 -0 16.22 1.73 22.19 7.69 C23.32 8.8 23.32 8.8 24.48 9.93 C30.57 17.56 29.65 29.08 30 38.38 C30.04 39.44 30.09 40.5 30.13 41.59 C30.24 44.18 30.34 46.78 30.44 49.38 C31.3 49.42 32.17 49.46 33.06 49.51 C36.32 49.69 39.57 49.87 42.82 50.06 C44.22 50.15 45.62 50.22 47.02 50.29 C62.11 51.07 62.11 51.07 68.44 54.38 C68.77 55.37 69.1 56.36 69.44 57.38 C70.04 57.66 70.63 57.95 71.25 58.25 C75.47 60.42 77.49 64.02 79.19 68.31 C81.95 77.41 81.58 87.77 77.44 96.38 C76.78 97.37 76.12 98.36 75.44 99.38 C74.78 99.38 74.12 99.38 73.44 99.38 C72.45 101.36 72.45 101.36 71.44 103.38 C70.78 103.38 70.12 103.38 69.44 103.38 C69.44 104.04 69.44 104.69 69.44 105.38 C64.19 109.02 59.78 109.51 53.48 109.91 C52.49 109.97 52.49 109.97 51.48 110.04 C49.39 110.18 47.29 110.31 45.19 110.44 C43.76 110.53 42.33 110.62 40.91 110.71 C37.42 110.94 33.93 111.16 30.44 111.38 C30.4 112.27 30.36 113.17 30.32 114.09 C30.16 117.46 29.99 120.82 29.8 124.18 C29.73 125.63 29.66 127.08 29.59 128.53 C29.24 136.57 28.9 143.4 24.44 150.38 C23.78 150.38 23.12 150.38 22.44 150.38 C21.78 151.69 21.12 153.01 20.44 154.38 C19.78 154.38 19.12 154.38 18.44 154.38 C18.11 155.37 17.78 156.36 17.44 157.38 C11.53 160.8 6.08 160.83 -0.62 160.75 C-2.08 160.77 -2.08 160.77 -3.56 160.79 C-11.61 160.75 -16.44 158.92 -22.25 153.19 C-23.37 152.11 -23.37 152.11 -24.51 151.02 C-30.43 143.39 -30.05 135.22 -30.19 125.94 C-30.24 123.4 -30.29 120.86 -30.35 118.32 C-30.37 117.2 -30.39 116.08 -30.4 114.93 C-30.28 112.44 -30.28 112.44 -31.56 111.38 C-33.7 111.18 -35.84 111.05 -37.98 110.95 C-39.31 110.87 -40.64 110.8 -41.97 110.72 C-44.07 110.61 -46.17 110.5 -48.27 110.4 C-50.3 110.3 -52.33 110.19 -54.35 110.07 C-55.57 110.01 -56.78 109.95 -58.03 109.88 C-64.63 108.93 -69.17 106.33 -73.88 101.56 C-74.72 100.73 -75.56 99.9 -76.43 99.04 C-81 93.33 -80.9 87.45 -80.88 80.44 C-80.9 79.14 -80.9 79.14 -80.92 77.81 C-80.93 69.89 -79.04 64.32 -73.56 58.38 C-67.56 52.76 -62.56 51.22 -54.45 50.78 C-53.79 50.74 -53.14 50.7 -52.46 50.66 C-50.39 50.54 -48.32 50.42 -46.25 50.31 C-44.16 50.2 -42.07 50.08 -39.98 49.96 C-38.1 49.85 -36.22 49.74 -34.33 49.64 C-31.66 49.68 -31.66 49.68 -30.56 48.38 C-30.44 46.32 -30.38 44.27 -30.35 42.21 C-30.31 40.31 -30.31 40.31 -30.27 38.37 C-30.21 35.69 -30.17 33.02 -30.13 30.34 C-29.91 21.31 -29.66 13.68 -22.81 7.06 C-22.18 6.43 -21.54 5.79 -20.89 5.14 C-14.19 0.07 -8.16 -0.09 0 0 Z " fill="#000000" transform="translate(563.5625,1071.625)"/>
<path d="M0 0 C1.55 1.24 1.55 1.24 4.24 3.86 C5 4.61 5.76 5.35 6.55 6.11 C7.44 7.02 8.32 7.93 9.24 8.86 C10 9.6 10.76 10.35 11.55 11.11 C12.38 11.92 13.2 12.72 14.05 13.55 C15.24 14.7 15.24 14.7 16.45 15.88 C18.24 17.86 18.24 17.86 18.24 19.86 C18.84 20.13 19.43 20.4 20.05 20.68 C22.24 21.86 23.65 22.96 25.24 24.86 C25.24 25.52 25.24 26.18 25.24 26.86 C25.8 27.1 26.36 27.34 26.94 27.58 C29.76 29.15 31.72 31.08 33.99 33.36 C34.79 34.16 35.59 34.95 36.41 35.77 C38.24 37.86 38.24 37.86 38.24 39.86 C38.8 40.09 39.35 40.32 39.93 40.56 C42.85 42.21 44.84 44.27 47.18 46.68 C48.01 47.53 48.84 48.38 49.7 49.26 C50.54 50.12 51.38 50.98 52.24 51.86 C53.9 53.53 55.57 55.2 57.24 56.86 C64.24 63.86 71.24 70.86 78.24 77.86 C79.01 78.63 79.78 79.39 80.57 80.18 C83.72 83.35 86.8 86.56 89.86 89.8 C90.44 90.4 91.01 90.99 91.6 91.6 C99.71 100.23 100.64 108.48 100.45 119.91 C100.05 127.38 98.11 132.85 92.98 138.36 C84.45 145.71 73.89 145.54 63.24 144.86 C55.98 143.92 51.94 141.25 47.07 135.86 C45.39 134.03 43.69 132.52 41.74 130.99 C40.91 130.29 40.09 129.59 39.24 128.86 C39.24 128.2 39.24 127.54 39.24 126.86 C38.4 126.51 38.4 126.51 37.54 126.14 C34.72 124.57 32.76 122.65 30.49 120.36 C29.29 119.17 29.29 119.17 28.07 117.96 C26.24 115.86 26.24 115.86 26.24 113.86 C25.4 113.51 25.4 113.51 24.54 113.15 C21.68 111.55 19.73 109.58 17.43 107.25 C16.52 106.33 15.61 105.41 14.67 104.47 C13.71 103.49 12.76 102.52 11.8 101.55 C10.85 100.59 9.9 99.63 8.95 98.67 C7.19 96.89 5.43 95.11 3.67 93.33 C1.97 91.6 0.24 89.91 -1.51 88.24 C-3.76 85.86 -3.76 85.86 -4.76 82.86 C-5.36 82.57 -5.96 82.29 -6.57 81.99 C-9.48 80.5 -10.72 78.42 -12.76 75.86 C-14.06 74.7 -15.37 73.55 -16.7 72.43 C-20.13 69.5 -22.87 66.33 -25.76 62.86 C-27.08 61.68 -28.41 60.51 -29.76 59.36 C-33.21 56.43 -35.93 53.39 -38.76 49.86 C-39.63 49 -40.49 48.13 -41.39 47.24 C-48.04 40.58 -48.97 34.19 -49.07 24.99 C-49.04 17.2 -48.29 9.92 -43.57 3.49 C-33.08 -6.31 -12.18 -7.86 0 0 Z " fill="#000000" transform="translate(223.76171875,179.13671875)"/>
<path d="M0 0 C5.26 4.4 7.09 9.67 8.69 16.25 C9.47 26.22 9.87 37.35 3.31 45.56 C0.79 48.14 -1.76 50.7 -4.31 53.25 C-5.42 54.54 -6.53 55.83 -7.62 57.12 C-10.66 60.64 -13.94 63.61 -17.48 66.6 C-19.53 68.37 -19.53 68.37 -21.81 71.25 C-24.44 74.41 -27.29 76.88 -30.41 79.53 C-32.52 81.36 -32.52 81.36 -34.81 84.25 C-36.79 86.62 -38.53 88.36 -40.85 90.32 C-46.83 95.48 -52.26 101.19 -57.77 106.84 C-58.59 107.66 -59.4 108.49 -60.24 109.34 C-60.98 110.09 -61.71 110.84 -62.47 111.62 C-64.31 113.25 -64.31 113.25 -66.31 113.25 C-66.55 113.81 -66.79 114.37 -67.03 114.95 C-68.6 117.77 -70.53 119.73 -72.81 122 C-74 123.2 -74 123.2 -75.22 124.42 C-77.31 126.25 -77.31 126.25 -79.31 126.25 C-79.53 126.81 -79.76 127.36 -79.98 127.93 C-81.73 130.99 -83.96 132.95 -86.56 135.31 C-87.5 136.17 -88.43 137.03 -89.39 137.91 C-98.43 145.15 -108.29 144.84 -119.31 144.25 C-125.85 143.17 -130.98 140.28 -135.31 135.25 C-141.22 125.93 -141.53 115.19 -139.89 104.48 C-138.18 98.52 -134.52 94.65 -130.31 90.25 C-128.72 88.34 -127.14 86.43 -125.57 84.5 C-124.31 83.25 -124.31 83.25 -122.31 83.25 C-122.07 82.63 -121.82 82.01 -121.56 81.38 C-120.08 78.85 -118.88 78.53 -116.31 77.25 C-115.22 75.32 -115.22 75.32 -114.31 73.25 C-112.81 71.5 -112.81 71.5 -111.31 70.25 C-110.65 70.25 -109.99 70.25 -109.31 70.25 C-109.09 69.69 -108.86 69.14 -108.62 68.56 C-106.94 65.6 -104.78 63.6 -102.31 61.25 C-101.59 60.49 -100.87 59.72 -100.12 58.94 C-98.31 57.25 -98.31 57.25 -96.31 57.25 C-96.04 56.61 -95.78 55.97 -95.5 55.31 C-94.31 53.25 -94.31 53.25 -91.31 52.25 C-90.63 50.92 -89.97 49.59 -89.31 48.25 C-87.86 46.62 -86.36 45.04 -84.81 43.5 C-84.02 42.7 -83.22 41.9 -82.41 41.08 C-80.31 39.25 -80.31 39.25 -78.31 39.25 C-78.08 38.69 -77.84 38.13 -77.59 37.55 C-76.02 34.73 -74.1 32.77 -71.81 30.5 C-71.02 29.7 -70.22 28.9 -69.41 28.08 C-67.31 26.25 -67.31 26.25 -65.31 26.25 C-65.04 25.65 -64.78 25.05 -64.5 24.44 C-63.31 22.25 -62.22 20.84 -60.31 19.25 C-59.65 19.25 -58.99 19.25 -58.31 19.25 C-57.93 18.38 -57.93 18.38 -57.54 17.49 C-53.13 9.44 -41.72 -0.77 -33.06 -3.94 C-21.67 -6.46 -10.27 -5.43 0 0 Z " fill="#000000" transform="translate(840.3125,179.75)"/>
<path d="M0 0 C1.12 0.01 1.12 0.01 2.26 0.01 C9.48 0.17 16.1 1.14 22.06 5.5 C30.37 14.4 30.21 24.7 29.82 36.21 C29.18 46.15 23.54 51.64 16.69 58.31 C16.13 58.91 15.57 59.51 15 60.12 C13.69 61.31 13.69 61.31 11.69 61.31 C11.45 61.87 11.21 62.44 10.97 63.02 C9.4 65.83 7.47 67.79 5.19 70.06 C4 71.26 4 71.26 2.78 72.48 C0.69 74.31 0.69 74.31 -1.31 74.31 C-1.52 74.84 -1.72 75.37 -1.94 75.92 C-3.89 79.31 -6.59 81.87 -9.34 84.61 C-9.94 85.2 -10.53 85.8 -11.14 86.41 C-12.39 87.66 -13.64 88.91 -14.89 90.15 C-16.81 92.06 -18.73 93.99 -20.64 95.91 C-21.85 97.12 -23.07 98.34 -24.28 99.55 C-24.86 100.12 -25.43 100.7 -26.02 101.3 C-30.08 105.31 -30.08 105.31 -32.31 105.31 C-32.55 105.87 -32.79 106.44 -33.03 107.02 C-34.6 109.83 -36.53 111.79 -38.81 114.06 C-40 115.26 -40 115.26 -41.22 116.48 C-43.31 118.31 -43.31 118.31 -45.31 118.31 C-45.71 119.21 -45.71 119.21 -46.12 120.12 C-47.31 122.31 -48.41 123.73 -50.31 125.31 C-50.97 125.31 -51.63 125.31 -52.31 125.31 C-52.57 125.89 -52.82 126.48 -53.09 127.07 C-55.33 131.18 -58.94 134.12 -62.31 137.31 C-62.98 137.95 -63.65 138.59 -64.34 139.25 C-73.29 147.47 -81.45 149.64 -93.54 149.46 C-101.7 149.03 -107.32 147 -113.31 141.31 C-119.91 133.33 -119.9 124.22 -119.31 114.31 C-118.1 104.14 -112.58 98.24 -105.75 91 C-105.08 90.27 -104.41 89.54 -103.71 88.79 C-103.06 88.1 -102.41 87.41 -101.75 86.7 C-101.16 86.07 -100.57 85.45 -99.97 84.8 C-98.31 83.31 -98.31 83.31 -95.31 82.31 C-94.61 81 -93.95 79.66 -93.31 78.31 C-91.81 76.56 -91.81 76.56 -90.31 75.31 C-89.65 75.31 -88.99 75.31 -88.31 75.31 C-88.08 74.75 -87.84 74.19 -87.59 73.61 C-86.02 70.79 -84.1 68.83 -81.81 66.56 C-81.02 65.76 -80.22 64.96 -79.41 64.14 C-77.31 62.31 -77.31 62.31 -75.31 62.31 C-75 61.52 -75 61.52 -74.69 60.71 C-72.74 57.31 -70.04 54.75 -67.28 52.02 C-66.69 51.42 -66.1 50.83 -65.49 50.22 C-64.24 48.97 -62.99 47.72 -61.74 46.48 C-59.81 44.56 -57.9 42.64 -55.99 40.71 C-54.77 39.5 -53.56 38.29 -52.34 37.08 C-51.77 36.5 -51.2 35.92 -50.6 35.33 C-46.54 31.31 -46.54 31.31 -44.31 31.31 C-44.08 30.75 -43.84 30.19 -43.59 29.61 C-42.02 26.79 -40.1 24.83 -37.81 22.56 C-37.02 21.76 -36.22 20.96 -35.41 20.14 C-33.31 18.31 -33.31 18.31 -31.31 18.31 C-31.09 17.74 -30.86 17.16 -30.62 16.56 C-28.96 13.72 -26.92 12.31 -24.31 10.31 C-23.47 9.47 -22.62 8.62 -21.75 7.75 C-15.36 1.36 -8.84 -0.07 0 0 Z " fill="#000000" transform="translate(294.3125,699.6875)"/>
<path d="M0 0 C1.52 -0.02 1.52 -0.02 3.08 -0.05 C10.25 -0.05 15.15 0.63 20.95 5.11 C21.59 5.75 22.22 6.4 22.88 7.06 C23.84 8.01 23.84 8.01 24.83 8.98 C28.83 14.17 30.01 19.15 30.3 25.6 C30.35 26.68 30.35 26.68 30.4 27.78 C30.86 39.11 30.77 50.45 30.76 61.79 C30.76 64.32 30.76 66.86 30.76 69.4 C30.76 74.69 30.76 79.98 30.76 85.28 C30.75 91.35 30.75 97.42 30.76 103.5 C30.76 109.4 30.76 115.3 30.76 121.2 C30.76 123.69 30.76 126.17 30.76 128.66 C30.79 170.39 30.79 170.39 20.02 181.55 C14.04 185.95 7.89 186.8 0.62 186.69 C-0.13 186.7 -0.89 186.71 -1.66 186.72 C-8.29 186.69 -13.7 185.35 -19.02 181.3 C-19.73 180.56 -20.45 179.82 -21.19 179.06 C-21.92 178.34 -22.64 177.61 -23.39 176.86 C-27.36 171.77 -28.74 166.89 -29.05 160.52 C-29.09 159.85 -29.12 159.17 -29.15 158.48 C-29.63 147.32 -29.52 136.14 -29.51 124.97 C-29.51 122.44 -29.51 119.9 -29.51 117.36 C-29.51 112.07 -29.51 106.77 -29.51 101.48 C-29.5 95.41 -29.5 89.33 -29.51 83.26 C-29.51 77.36 -29.51 71.46 -29.51 65.56 C-29.51 63.07 -29.51 60.59 -29.51 58.1 C-29.54 15.61 -29.54 15.61 -20.44 5.94 C-14.32 -0.17 -8.22 -0.03 0 0 Z " fill="#000000" transform="translate(511.375,47.6875)"/>
<path d="M0 0 C2.54 -0 5.08 -0 7.62 -0 C12.92 -0 18.22 -0 23.51 0 C29.59 0.01 35.67 0.01 41.75 0 C47.66 -0 53.57 -0 59.48 -0 C61.96 -0 64.45 -0 66.94 -0 C108.7 -0.03 108.7 -0.03 119.86 10.74 C124.27 16.72 125.11 22.87 125 30.13 C125.01 30.89 125.02 31.64 125.04 32.42 C125 39.05 123.66 44.46 119.61 49.78 C118.87 50.49 118.13 51.21 117.38 51.95 C116.65 52.67 115.92 53.4 115.17 54.15 C110.08 58.11 105.2 59.5 98.84 59.81 C97.82 59.86 97.82 59.86 96.79 59.91 C85.62 60.39 74.43 60.28 63.25 60.27 C60.71 60.27 58.17 60.27 55.63 60.27 C50.33 60.27 45.03 60.27 39.74 60.26 C33.66 60.26 27.58 60.26 21.5 60.27 C15.59 60.27 9.68 60.27 3.77 60.27 C1.29 60.27 -1.2 60.27 -3.69 60.27 C-25.93 60.29 -25.93 60.29 -35.59 59.81 C-36.75 59.76 -37.92 59.7 -39.12 59.64 C-47.32 58.36 -53.33 54.1 -58.19 47.51 C-61.98 42.09 -61.62 36.84 -61.69 30.45 C-61.72 29.48 -61.75 28.51 -61.78 27.51 C-61.83 20.91 -60.78 16.8 -57.38 11.13 C-56.72 11.13 -56.05 11.13 -55.38 11.13 C-55.19 10.58 -55 10.02 -54.81 9.45 C-52.54 5.79 -48.82 2.9 -44.67 1.6 C-30.32 -1.33 -14.55 -0.01 0 0 Z " fill="#000000" transform="translate(109.375,481.8671875)"/>
</svg>
